<svg width="140" height="auto" viewBox="0 0 347 137" fill="none" xmlns="http://www.w3.org/2000/svg">
<g clip-path="url(#clip0_911_840)">
<path d="M67.9795 29.8513C53.5653 29.8513 41.3512 39.3538 37.1579 52.4875C35.8168 56.6876 39.363 60.468 43.7373 60.468H44.5516C44.5516 60.468 54.964 60.468 54.964 67.7395C54.964 75.0109 44.5516 75.0109 44.5516 75.0109H43.7373C39.363 75.0109 35.8168 78.7913 37.1579 82.9914C41.3512 96.1251 53.5653 105.628 67.9795 105.628C82.3936 105.628 94.6077 96.1251 98.8011 82.9914C100.142 78.7913 96.5959 75.0109 92.2216 75.0109H91.4073C91.4073 75.0109 80.9949 75.0109 80.9949 67.7395C80.9949 60.468 91.4073 60.468 91.4073 60.468H92.2216C96.5959 60.468 100.142 56.6876 98.8011 52.4875C94.6077 39.3538 82.3936 29.8513 67.9795 29.8513Z" fill="#002B65"/>
<path fill-rule="evenodd" clip-rule="evenodd" d="M67.9795 135.479C30.4356 135.479 0.000366211 105.151 0.000366211 67.7395C0.000366211 30.328 30.4356 0 67.9795 0C105.523 0 135.959 30.328 135.959 67.7395C135.959 105.151 105.523 135.479 67.9795 135.479ZM67.9795 7.65418C41.0045 7.65418 18.0928 23.8497 9.85287 46.3653C6.99951 54.1621 14.1807 61.2334 23.0287 61.2334H27.6529C27.6529 61.2334 42.685 61.2334 42.685 67.7395C42.685 74.2455 27.6529 74.2455 27.6529 74.2455H23.0287C14.1807 74.2455 6.99951 81.3168 9.85287 89.1136C18.0928 111.629 41.0045 127.825 67.9795 127.825C94.9544 127.825 117.866 111.629 126.106 89.1136C128.959 81.3168 121.778 74.2455 112.93 74.2455H108.306C108.306 74.2455 93.2739 74.2455 93.2739 67.7395C93.2739 61.2334 108.306 61.2334 108.306 61.2334H112.93C121.778 61.2334 128.959 54.1621 126.106 46.3653C117.866 23.8497 94.9544 7.65418 67.9795 7.65418Z" fill="#002B65"/>
</g>
<path d="M156.421 51.4318C156.421 72.3854 171.166 87.143 191.784 87.143C205.128 87.143 214.475 81.7157 219.593 73.2912C222.7 68.1763 217.812 62.6972 211.544 62.6972C207.249 62.6972 203.776 65.6332 200.6 68.3511C198.443 70.197 195.546 71.2589 191.784 71.2589C181.595 71.2589 175.841 62.6972 175.841 51.4318C175.841 40.0538 181.595 31.6048 191.784 31.6048C195.527 31.6048 198.412 32.6555 200.566 34.464C203.755 37.1428 207.228 40.0539 211.506 40.0539C217.79 40.0539 222.686 34.5529 219.539 29.441C214.409 21.11 205.082 15.7207 191.784 15.7207C171.166 15.7207 156.421 30.4783 156.421 51.4318Z" fill="#002B65"/>
<path d="M229.949 72.6759C229.949 80.0437 236.304 86.0165 244.144 86.0165H273.882C278.483 86.0165 282.213 82.5111 282.213 78.187C282.213 73.863 278.483 70.3576 273.882 70.3576H263.444C255.604 70.3576 249.248 64.3849 249.248 57.0171V25.9158C249.248 20.9074 244.928 16.8472 239.599 16.8472C234.269 16.8472 229.949 20.9074 229.949 25.9158V72.6759Z" fill="#002B65"/>
<path d="M297.796 65.5135C291.343 65.5135 286.339 71.2753 290.169 76.1561C295.703 83.2087 305.29 87.143 317.649 87.143C333.712 87.143 346.418 79.0319 346.418 64.8376C346.418 54.1355 339.466 47.7143 326.879 44.8979L312.494 41.7437C308.658 40.9551 306.381 39.2653 306.381 36.2236C306.381 32.3934 310.097 30.1403 315.611 30.1403C318.571 30.1403 320.88 30.776 322.66 31.8423C326.194 33.9592 329.647 36.8996 333.838 36.8996C340.06 36.8996 344.926 31.4188 341.36 26.6264C336.471 20.0562 327.809 15.7207 315.491 15.7207C299.188 15.7207 287.201 24.6203 287.201 38.1387C287.201 49.8547 295.352 55.1494 306.141 57.4025L320.286 60.2188C324.961 61.2327 327.239 62.6972 327.239 65.9641C327.239 70.245 323.163 72.6107 317.289 72.6107C314.448 72.6107 311.984 72.0792 310.013 71.0163C306.079 68.8962 302.33 65.5135 297.796 65.5135Z" fill="#002B65"/>
<path d="M158.458 109.937C158.458 114.776 161.659 118.183 166.135 118.183C170.117 118.183 172.459 115.816 173.032 112.539H168.868C168.451 113.735 167.592 114.516 166.135 114.516C163.923 114.516 162.674 112.539 162.674 109.937C162.674 107.31 163.923 105.359 166.135 105.359C167.592 105.359 168.451 106.14 168.868 107.31H173.032C172.459 104.059 170.117 101.691 166.135 101.691C161.659 101.691 158.458 105.099 158.458 109.937Z" fill="#002B65"/>
<path d="M181.737 113.839C181.503 114.646 180.852 115.01 180.02 115.01C178.849 115.01 178.12 114.256 177.99 112.851H185.563V111.836C185.563 108.351 183.533 105.958 179.942 105.958C176.558 105.958 174.06 108.455 174.06 112.07C174.06 115.712 176.428 118.183 180.02 118.183C183.065 118.183 185.095 116.545 185.511 113.839H181.737ZM179.942 109.131C180.957 109.131 181.555 109.859 181.607 110.822H178.068C178.328 109.729 178.979 109.131 179.942 109.131Z" fill="#002B65"/>
<path d="M191.198 101.015H187.112V117.923H191.198V101.015Z" fill="#002B65"/>
<path d="M197.501 101.015H193.415V117.923H197.501V101.015Z" fill="#002B65"/>
<path d="M205.033 117.923H216.379V114.308H209.223V101.952H205.033V117.923Z" fill="#002B65"/>
<path d="M222.281 106.218H218.195V117.923H222.281V106.218ZM222.567 103.044C222.567 101.691 221.5 100.833 220.251 100.833C219.002 100.833 217.935 101.691 217.935 103.044C217.935 104.371 219.002 105.229 220.251 105.229C221.5 105.229 222.567 104.371 222.567 103.044Z" fill="#002B65"/>
<path d="M224.498 117.923H228.584V110.848C228.792 110.041 229.469 109.573 230.276 109.573C231.317 109.573 231.811 110.276 231.811 111.238V117.923H235.871V110.25C235.871 107.648 234.335 105.958 231.733 105.958C230.38 105.958 229.235 106.504 228.584 107.232V106.218H224.498V117.923Z" fill="#002B65"/>
<path d="M245.046 113.839C244.812 114.646 244.161 115.01 243.329 115.01C242.157 115.01 241.429 114.256 241.299 112.851H248.872V111.836C248.872 108.351 246.842 105.958 243.25 105.958C239.867 105.958 237.369 108.455 237.369 112.07C237.369 115.712 239.737 118.183 243.329 118.183C246.373 118.183 248.403 116.545 248.82 113.839H245.046ZM243.25 109.131C244.265 109.131 244.864 109.859 244.916 110.822H241.377C241.637 109.729 242.287 109.131 243.25 109.131Z" fill="#002B65"/>
<path d="M249.821 114.308C250.185 116.831 252.345 118.183 255.338 118.183C258.201 118.183 260.465 116.805 260.465 114.308C260.465 112.409 259.32 111.29 257.186 110.796L254.87 110.25C254.323 110.146 254.063 109.963 254.063 109.599C254.063 109.079 254.557 108.819 255.156 108.819C256.093 108.819 256.457 109.261 256.587 109.755H260.361C259.997 107.44 258.253 105.958 255.052 105.958C252.293 105.958 250.055 107.414 250.055 109.911C250.055 111.966 251.33 112.903 253.282 113.319L255.572 113.787C256.145 113.917 256.483 114.073 256.483 114.516C256.483 115.062 255.963 115.322 255.286 115.322C254.557 115.322 253.985 114.958 253.803 114.308H249.821Z" fill="#002B65"/>
<path d="M266.592 113.189C267.165 116.337 269.767 118.183 273.593 118.183C277.08 118.183 279.839 116.311 279.839 113.033C279.839 110.562 278.33 109.079 275.597 108.429L272.474 107.7C271.641 107.518 271.147 107.128 271.147 106.426C271.147 105.541 271.954 105.021 273.151 105.021C274.53 105.021 275.259 105.697 275.597 106.582H279.683C279.241 103.824 277.028 101.691 273.125 101.691C269.585 101.691 266.983 103.746 266.983 106.868C266.983 109.573 268.752 110.796 271.095 111.316L274.166 111.966C275.181 112.201 275.675 112.539 275.675 113.293C275.675 114.282 274.79 114.828 273.515 114.828C272.214 114.828 271.277 114.282 270.939 113.189H266.592Z" fill="#002B65"/>
<path d="M288.709 113.839C288.475 114.646 287.824 115.01 286.992 115.01C285.82 115.01 285.092 114.256 284.962 112.851H292.535V111.836C292.535 108.351 290.505 105.958 286.913 105.958C283.53 105.958 281.032 108.455 281.032 112.07C281.032 115.712 283.4 118.183 286.992 118.183C290.036 118.183 292.066 116.545 292.483 113.839H288.709ZM286.913 109.131C287.928 109.131 288.527 109.859 288.579 110.822H285.04C285.3 109.729 285.951 109.131 286.913 109.131Z" fill="#002B65"/>
<path d="M301.944 106.166C301.762 106.062 301.345 105.958 300.825 105.958C299.654 105.958 298.743 106.478 298.17 107.258V106.218H294.084V117.923H298.17V111.056C298.378 110.224 299.133 109.729 300.252 109.729C300.903 109.729 301.449 109.833 301.944 110.094V106.166Z" fill="#002B65"/>
<path d="M310.799 117.923L315.275 106.218H311.267L309.081 112.929L306.843 106.218H302.679L307.129 117.923H310.799Z" fill="#002B65"/>
<path d="M320.612 106.218H316.526V117.923H320.612V106.218ZM320.898 103.044C320.898 101.691 319.831 100.833 318.582 100.833C317.333 100.833 316.266 101.691 316.266 103.044C316.266 104.371 317.333 105.229 318.582 105.229C319.831 105.229 320.898 104.371 320.898 103.044Z" fill="#002B65"/>
<path d="M322.204 112.07C322.204 115.686 324.598 118.183 328.112 118.183C331.261 118.183 333.213 116.285 333.551 113.579H329.595C329.491 114.282 328.945 114.776 328.112 114.776C326.967 114.776 326.238 113.735 326.238 112.07C326.238 110.406 326.967 109.339 328.112 109.339C328.945 109.339 329.491 109.859 329.595 110.562H333.551C333.213 107.83 331.261 105.958 328.112 105.958C324.598 105.958 322.204 108.455 322.204 112.07Z" fill="#002B65"/>
<path d="M342.208 113.839C341.974 114.646 341.323 115.01 340.49 115.01C339.319 115.01 338.59 114.256 338.46 112.851H346.034V111.836C346.034 108.351 344.004 105.958 340.412 105.958C337.029 105.958 334.53 108.455 334.53 112.07C334.53 115.712 336.899 118.183 340.49 118.183C343.535 118.183 345.565 116.545 345.981 113.839H342.208ZM340.412 109.131C341.427 109.131 342.026 109.859 342.078 110.822H338.538C338.799 109.729 339.449 109.131 340.412 109.131Z" fill="#002B65"/>
<defs>
<clipPath id="clip0_911_840">
<rect width="135.958" height="135.479" fill="white" transform="matrix(-1 0 0 1 135.958 0)"/>
</clipPath>
</defs>
</svg>
