<svg xmlns="http://www.w3.org/2000/svg" width="160" height="auto" viewBox="0 0 165 36">
    <g fill="#005CB9" fill-rule="nonzero">
        <path d="M13.796 35.201c-4.96 0-8.67-1.491-11.099-4.508C.27 27.71-.527 23.479.34 18.035A20.76 20.76 0 0 1 6.726 5.48 17.95 17.95 0 0 1 19.277.798c1.171-.01 2.341.06 3.503.208.986.127 1.961.336 2.913.624.796.243 1.572.544 2.323.902.833.382 1.491.728 2.011 1.005l-1.25 7.873h-.833c-.348-.349-.763-.798-1.318-1.278a17.012 17.012 0 0 0-1.838-1.456c-.738-.493-1.53-.9-2.36-1.214a7.48 7.48 0 0 0-2.808-.485 9.987 9.987 0 0 0-3.4.555 9.523 9.523 0 0 0-3.151 1.975 10.845 10.845 0 0 0-2.567 3.434 16.026 16.026 0 0 0-1.595 5.098 14.452 14.452 0 0 0 0 5.203 7.597 7.597 0 0 0 1.626 3.4 6.416 6.416 0 0 0 2.601 1.803 8.527 8.527 0 0 0 3.087.555c1.099.007 2.191-.18 3.225-.555.944-.31 1.853-.719 2.711-1.22.798-.45 1.526-.936 2.185-1.387.624-.486 1.178-.902 1.664-1.278h.763l-1.244 7.763c-.659.278-1.421.59-2.254.971-.867.347-1.734.659-2.601.936-.99.3-1.999.532-3.02.697a19.895 19.895 0 0 1-3.854.274zM53.75 22.092a16.11 16.11 0 0 1-4.89 9.711 14.446 14.446 0 0 1-10.093 3.537c-4.057 0-7.038-1.179-8.942-3.537-1.873-2.358-2.497-5.583-1.838-9.71a15.866 15.866 0 0 1 4.925-9.746A14.477 14.477 0 0 1 42.964 8.81c4.092 0 7.073 1.179 8.942 3.537 1.873 2.393 2.503 5.618 1.844 9.745zm-7.977.035c.23-1.224.3-2.473.208-3.716a6.432 6.432 0 0 0-.625-2.358 2.832 2.832 0 0 0-1.353-1.278 4.677 4.677 0 0 0-1.908-.382c-.66-.006-1.316.1-1.941.312a4.297 4.297 0 0 0-1.734 1.249 9.474 9.474 0 0 0-1.456 2.393 17.206 17.206 0 0 0-1.006 3.815 14.537 14.537 0 0 0-.208 3.716c.06.785.271 1.55.625 2.254a2.854 2.854 0 0 0 1.353 1.278c.63.287 1.318.429 2.011.415a5.326 5.326 0 0 0 1.974-.415 4.373 4.373 0 0 0 1.734-1.214 8.282 8.282 0 0 0 1.422-2.289c.393-1.236.695-2.5.904-3.78zM81.46 9.606L68.56 34.541h-8.497L55.138 9.606h8.185l2.499 16.508 7.664-16.508zM92.94 31.906c-.59.451-1.145.833-1.626 1.214a14.29 14.29 0 0 1-1.873 1.075c-.692.32-1.412.576-2.15.763-.923.204-1.866.297-2.81.278a6.218 6.218 0 0 1-5.133-2.22 6.81 6.81 0 0 1-1.318-5.583 8.928 8.928 0 0 1 1.835-4.468 9.383 9.383 0 0 1 3.642-2.705 18.864 18.864 0 0 1 5.271-1.422 84.19 84.19 0 0 1 6.416-.624l.035-.139a2.478 2.478 0 0 0-1.075-2.844 9.547 9.547 0 0 0-4.44-.797 14.516 14.516 0 0 0-3.294.485 25.966 25.966 0 0 0-3.815 1.278h-.697l.936-6.04c.798-.207 2.08-.485 3.85-.797a30.353 30.353 0 0 1 5.27-.45c4.297 0 7.317.728 9.053 2.15 1.736 1.423 2.359 3.607 1.908 6.554l-2.701 16.963H92.49l.45-2.67zm.625-3.85l.833-5.202c-1.353.138-2.428.243-3.26.349-.849.102-1.685.287-2.497.555a4.121 4.121 0 0 0-1.769 1.075 3.608 3.608 0 0 0-.867 1.908c-.173 1.179 0 1.974.555 2.393.793.51 1.732.74 2.671.659.74-.006 1.47-.16 2.15-.45a7.383 7.383 0 0 0 2.184-1.286zM123.806 16.96h-.625a6.064 6.064 0 0 0-1.248-.243 29.051 29.051 0 0 0-1.838-.07 10.6 10.6 0 0 0-2.637.348c-.936.243-1.838.52-2.739.833l-2.636 16.717h-7.768l3.948-24.938h7.77l-.556 3.572 1.664-1.248a16.04 16.04 0 0 1 1.908-1.179 10.766 10.766 0 0 1 2.116-.867 7.63 7.63 0 0 1 2.195-.382 7.26 7.26 0 0 1 .833.035c.279.003.557.026.832.07l-1.219 7.351zM130.05 34.543h-7.77l3.949-24.936h7.769l-3.949 24.936zm4.75-28.474h-8.223l.97-6.069h8.22l-.967 6.069zM141.765 35.236a21.423 21.423 0 0 1-5.098-.59 19.414 19.414 0 0 1-3.85-1.388l1.046-6.589h.658c.313.278.697.59 1.11.936a9.842 9.842 0 0 0 1.804 1.075c.742.369 1.52.66 2.323.868.949.26 1.93.388 2.913.382a8.156 8.156 0 0 0 2.982-.52 2.124 2.124 0 0 0 1.526-1.626 1.32 1.32 0 0 0-.382-1.318 5.028 5.028 0 0 0-2.116-.833 38.899 38.899 0 0 0-2.184-.485 21.716 21.716 0 0 1-2.289-.59 7.248 7.248 0 0 1-3.988-2.705 6.375 6.375 0 0 1-.728-4.682 7.93 7.93 0 0 1 1.249-3.157 10.172 10.172 0 0 1 2.67-2.636 13.843 13.843 0 0 1 3.949-1.803 17.9 17.9 0 0 1 5.063-.659 20.143 20.143 0 0 1 4.751.52c1.213.276 2.389.695 3.502 1.249l-1.005 6.312h-.625a12.765 12.765 0 0 0-1.145-.833 12.037 12.037 0 0 0-1.56-.901 8.129 8.129 0 0 0-2.082-.728 9.312 9.312 0 0 0-2.428-.278 7.094 7.094 0 0 0-2.947.59 2.183 2.183 0 0 0-1.422 1.526c-.124.476.022.982.381 1.318.708.489 1.512.82 2.359.97.624.174 1.387.313 2.219.486.812.151 1.611.36 2.393.625a7.06 7.06 0 0 1 3.677 2.532 6.067 6.067 0 0 1 .697 4.44 7.705 7.705 0 0 1-1.353 3.329 9.576 9.576 0 0 1-2.74 2.67 14.484 14.484 0 0 1-4.053 1.834 18.398 18.398 0 0 1-5.277.659zM164.07 9.677a3.197 3.197 0 1 1-.936-2.254c.614.587.953 1.405.936 2.254zm-.696 0a2.486 2.486 0 1 0-.729 1.769 2.409 2.409 0 0 0 .734-1.769h-.005zm-.763 1.491h-.974l-.936-1.179h-.312v1.18h-.763V7.976h1.144c.174-.008.349.003.52.035a.852.852 0 0 1 .381.138.68.68 0 0 1 .313.312.74.74 0 0 1 .104.416c.001.21-.06.414-.173.59a1.244 1.244 0 0 1-.485.348l1.18 1.352zm-1.318-2.22a.26.26 0 0 0-.035-.172.27.27 0 0 0-.138-.138.372.372 0 0 0-.208-.07h-.52v.901h.172a.96.96 0 0 0 .313-.035c.104-.035.173-.035.208-.104a.186.186 0 0 0 .104-.138c.107-.07.107-.14.107-.244h-.003z"/>
    </g>
</svg>
