<svg xmlns="http://www.w3.org/2000/svg" width="160px"  height="auto" viewBox="0 0 153 30"><g fill="none" fill-rule="evenodd"><circle cx="100.615" cy="2.984" r="2.984" fill="#222F5D" fill-rule="nonzero"/><path fill="#222F5D" fill-rule="nonzero" d="M101.061818,8.06727273 C101.563636,8.24727273 101.874545,8.73272727 101.989091,9.51272727 L102.010909,9.64909091 L104.612727,27.24 L152.034545,27.1909091 L152.034545,29.9181818 L103.516364,29.9672727 C102.829091,29.9672727 102.245455,29.4981818 102.092727,28.8327273 L102.076364,28.7345455 L100.521818,18.2072727 L98.82,28.7727273 C98.6727273,29.4381818 98.0781818,29.9181818 97.3963636,29.9181818 L0,29.8690909 L0,27.1418182 L96.3163636,27.1909091 L99.1472727,9.59454545 C99.1963636,9.24545455 99.3272727,8.34545455 100.085455,8.07272727"/><path fill="#222F5D" fill-rule="nonzero" d="M21.66 13.4454545C21.66 15.1690909 21.36 16.7618182 20.7654545 18.2181818 20.1709091 19.6745455 19.3363636 20.9345455 18.2563636 21.9981818 17.1763636 23.0618182 15.8781818 23.8909091 14.3563636 24.4854545 12.8345455 25.08 11.1436364 25.3745455 9.28909091 25.3745455L.0272727273 25.3745455.0272727273 1.53272727 9.28909091 1.53272727C11.1436364 1.53272727 12.8345455 1.83272727 14.3563636 2.43272727 15.8781818 3.03272727 17.1763636 3.86181818 18.2563636 4.92 19.3363636 5.97818182 20.1709091 7.23818182 20.7654545 8.69454545 21.36 10.1509091 21.66 11.7381818 21.66 13.4454545L21.66 13.4454545ZM15.9981818 13.4454545C15.9981818 12.2672727 15.8454545 11.2036364 15.54 10.2545455 15.2345455 9.30545455 14.7981818 8.50363636 14.22 7.84363636 13.6472727 7.18363636 12.9490909 6.67636364 12.12 6.32181818 11.2909091 5.96727273 10.3472727 5.79272727 9.28909091 5.79272727L5.59090909 5.79272727 5.59090909 21.1254545 9.28909091 21.1254545C10.3472727 21.1254545 11.2909091 20.9454545 12.12 20.5909091 12.9490909 20.2363636 13.6527273 19.7290909 14.22 19.0690909 14.7927273 18.4090909 15.2290909 17.6072727 15.54 16.6581818 15.8454545 15.7090909 15.9981818 14.64 15.9981818 13.4509091L15.9981818 13.4454545ZM28.8436364 11.0236364C29.3672727 10.1072727 29.9672727 9.38727273 30.6490909 8.86363636 31.3309091 8.34 32.1163636 8.07818182 33 8.07818182 33.7636364 8.07818182 34.3854545 8.25818182 34.8654545 8.61818182L34.5381818 12.3490909C34.4836364 12.5890909 34.3909091 12.7527273 34.2654545 12.84 34.14 12.9272727 33.9709091 12.9709091 33.7527273 12.9709091 33.6654545 12.9709091 33.5509091 12.9709091 33.4090909 12.9545455 33.2672727 12.9436364 33.12 12.9327273 32.9672727 12.9109091 32.8145455 12.8945455 32.6563636 12.8781818 32.5036364 12.8618182 32.3454545 12.8454545 32.1981818 12.84 32.0672727 12.84 31.3254545 12.84 30.7363636 13.0363636 30.2945455 13.4290909 29.8527273 13.8218182 29.4763636 14.3672727 29.1763636 15.0654545L29.1763636 25.3745455 24.1036364 25.3745455 24.1036364 8.40545455 27.1145455 8.40545455C27.3654545 8.40545455 27.5727273 8.42727273 27.7472727 8.47090909 27.9163636 8.51454545 28.0581818 8.58545455 28.1727273 8.67818182 28.2872727 8.77090909 28.3745455 8.89636364 28.4345455 9.04363636 28.4945455 9.19636364 28.5490909 9.38181818 28.5927273 9.6L28.8545455 11.0236364 28.8436364 11.0236364ZM34.6036364 22.8054545C34.6036364 22.4127273 34.6745455 22.0472727 34.8218182 21.7090909 34.9690909 21.3709091 35.1709091 21.0763636 35.4272727 20.8254545 35.6836364 20.5745455 35.9836364 20.3727273 36.3381818 20.2254545 36.6872727 20.0781818 37.0690909 20.0072727 37.4836364 20.0072727 37.8981818 20.0072727 38.2636364 20.0781818 38.6127273 20.2254545 38.9618182 20.3727273 39.2672727 20.5745455 39.5290909 20.8254545 39.7909091 21.0763636 39.9927273 21.3709091 40.14 21.7090909 40.2872727 22.0472727 40.3636364 22.4127273 40.3636364 22.8054545 40.3636364 23.1981818 40.2872727 23.5636364 40.14 23.9072727 39.9927273 24.2509091 39.7854545 24.5509091 39.5290909 24.8018182 39.2727273 25.0527273 38.9618182 25.2490909 38.6127273 25.3909091 38.2636364 25.5327273 37.8872727 25.6036364 37.4836364 25.6036364 37.08 25.6036364 36.6872727 25.5327273 36.3381818 25.3909091 35.9890909 25.2490909 35.6836364 25.0527273 35.4272727 24.8018182 35.1709091 24.5509091 34.9690909 24.2509091 34.8218182 23.9072727 34.6745455 23.5636364 34.6036364 23.1981818 34.6036364 22.8054545ZM78.0654545 1.53272727 78.0654545 25.3745455 73.1890909 25.3745455 73.1890909 11.6618182C73.1890909 11.3454545 73.1945455 11.0018182 73.2109091 10.6309091 73.2272727 10.26 73.2545455 9.88363636 73.3036364 9.50181818L66.9709091 21.7581818C66.7745455 22.14 66.5127273 22.4290909 66.18 22.6254545 65.8472727 22.8218182 65.4654545 22.92 65.0454545 22.92L64.2927273 22.92C63.8672727 22.92 63.4854545 22.8218182 63.1581818 22.6254545 62.8254545 22.4290909 62.5636364 22.14 62.3618182 21.7581818L56.0290909 9.46909091C56.0618182 9.86181818 56.0890909 10.2436364 56.1109091 10.6254545 56.1327273 11.0018182 56.1436364 11.3509091 56.1436364 11.6618182L56.1436364 25.3745455 51.2672727 25.3745455 51.2672727 1.53272727 55.4890909 1.53272727C55.7290909 1.53272727 55.9363636 1.53272727 56.1163636 1.54909091 56.2963636 1.56 56.4545455 1.59272727 56.5963636 1.64727273 56.7381818 1.70181818 56.8690909 1.78363636 56.9836364 1.89818182 57.0981818 2.01272727 57.2127273 2.17090909 57.3218182 2.37818182L63.4581818 14.4709091C63.6763636 14.8854545 63.8836364 15.3163636 64.0854545 15.7636364 64.2872727 16.2109091 64.4781818 16.6690909 64.6636364 17.1381818 64.8490909 16.6581818 65.04 16.1890909 65.2472727 15.7309091 65.4490909 15.2727273 65.6618182 14.8363636 65.8909091 14.4218182L72.0109091 2.37818182C72.12 2.17090909 72.2290909 2.01272727 72.3436364 1.89818182 72.4581818 1.78363636 72.5890909 1.69636364 72.7309091 1.64727273 72.8727273 1.59818182 73.0363636 1.56 73.2163636 1.54909091 73.3963636 1.53818182 73.6036364 1.53272727 73.8436364 1.53272727L78.0654545 1.53272727 78.0654545 1.53272727ZM81.3545455 10.7618182C82.38 9.85636364 83.5145455 9.18 84.7636364 8.73818182 86.0127273 8.29636364 87.3490909 8.07818182 88.7836364 8.07818182 89.8090909 8.07818182 90.7309091 8.24181818 91.5545455 8.58 92.3781818 8.91272727 93.0763636 9.37636364 93.6490909 9.97090909 94.2218182 10.5654545 94.6581818 11.2690909 94.9690909 12.0872727 95.2745455 12.9054545 95.4272727 13.8 95.4272727 14.7709091L95.4272727 25.3745455 93.1036364 25.3745455C92.6236364 25.3745455 92.2636364 25.3090909 92.0127273 25.1781818 91.7672727 25.0472727 91.5654545 24.7745455 91.4018182 24.36L91.0418182 23.4272727C90.6163636 23.7872727 90.2072727 24.1036364 89.8145455 24.3763636 89.4218182 24.6490909 89.0127273 24.8781818 88.5927273 25.0690909 88.1727273 25.26 87.7254545 25.4018182 87.2509091 25.4945455 86.7763636 25.5872727 86.2527273 25.6309091 85.6690909 25.6309091 84.8945455 25.6309091 84.1909091 25.5327273 83.5581818 25.3309091 82.9254545 25.1290909 82.3909091 24.8290909 81.9490909 24.4418182 81.5072727 24.0490909 81.1636364 23.5581818 80.9236364 22.9745455 80.6836364 22.3909091 80.5636364 21.72 80.5636364 20.9509091 80.5636364 20.34 80.7163636 19.7236364 81.0218182 19.0963636 81.3272727 18.4690909 81.8563636 17.8963636 82.6090909 17.3781818 83.3618182 16.86 84.3763636 16.4236364 85.6527273 16.08 86.9290909 15.7309091 88.5381818 15.5345455 90.48 15.4909091L90.48 14.7709091C90.48 13.7781818 90.2727273 13.0636364 89.8690909 12.6218182 89.46 12.18 88.8763636 11.9563636 88.1236364 11.9563636 87.5236364 11.9563636 87.0327273 12.0218182 86.6509091 12.1527273 86.2690909 12.2836364 85.9254545 12.4309091 85.6254545 12.5945455 85.3254545 12.7581818 85.0309091 12.9054545 84.7527273 13.0363636 84.4690909 13.1672727 84.1309091 13.2327273 83.7381818 13.2327273 83.3890909 13.2327273 83.0945455 13.1454545 82.8545455 12.9709091 82.6145455 12.7963636 82.4181818 12.5890909 82.2654545 12.3490909L81.3490909 10.7618182 81.3545455 10.7618182ZM90.4854545 18.4690909C89.4709091 18.5127273 88.6363636 18.6 87.9818182 18.7309091 87.3272727 18.8618182 86.8090909 19.0254545 86.4272727 19.2218182 86.0454545 19.4181818 85.7836364 19.6418182 85.6363636 19.8927273 85.4890909 20.1436364 85.4127273 20.4163636 85.4127273 20.7109091 85.4127273 21.2890909 85.5709091 21.6927273 85.8872727 21.9272727 86.2036364 22.1618182 86.6672727 22.2818182 87.2781818 22.2818182 87.9327273 22.2818182 88.5054545 22.1672727 88.9963636 21.9381818 89.4872727 21.7090909 89.9836364 21.3381818 90.4854545 20.8254545L90.4854545 18.4690909 90.4854545 18.4690909ZM117.010909 12.12C116.88 12.3272727 116.738182 12.4745455 116.590909 12.5618182 116.443636 12.6490909 116.258182 12.6927273 116.029091 12.6927273 115.789091 12.6927273 115.549091 12.6436364 115.309091 12.5345455 115.069091 12.4309091 114.807273 12.3218182 114.534545 12.1963636 114.256364 12.0763636 113.945455 11.9672727 113.590909 11.8581818 113.241818 11.7545455 112.843636 11.7054545 112.396364 11.7054545 111.752727 11.7054545 111.261818 11.8254545 110.918182 12.0709091 110.574545 12.3163636 110.4 12.66 110.4 13.0963636 110.4 13.4127273 110.514545 13.6745455 110.738182 13.8818182 110.961818 14.0890909 111.256364 14.2745455 111.627273 14.4272727 111.998182 14.5854545 112.418182 14.7381818 112.887273 14.88 113.356364 15.0218182 113.836364 15.18 114.327273 15.3545455 114.818182 15.5290909 115.298182 15.7363636 115.767273 15.9654545 116.236364 16.2 116.656364 16.4890909 117.027273 16.8327273 117.398182 17.1763636 117.692727 17.5963636 117.916364 18.0818182 118.14 18.5727273 118.254545 19.1618182 118.254545 19.8490909 118.254545 20.6890909 118.101818 21.4636364 117.796364 22.1727273 117.490909 22.8818182 117.032727 23.4927273 116.432727 24.0054545 115.827273 24.5181818 115.08 24.9163636 114.190909 25.2 113.301818 25.4836364 112.276364 25.6254545 111.125455 25.6254545 110.547273 25.6254545 109.969091 25.5709091 109.390909 25.4618182 108.812727 25.3527273 108.256364 25.2054545 107.716364 25.02 107.176364 24.8345455 106.674545 24.6109091 106.216364 24.3545455 105.758182 24.0981818 105.365455 23.8254545 105.038182 23.5309091L106.216364 21.6654545C106.347273 21.4472727 106.510909 21.2781818 106.718182 21.1472727 106.92 21.0218182 107.176364 20.9618182 107.492727 20.9618182 107.787273 20.9618182 108.049091 21.0272727 108.289091 21.1581818 108.523636 21.2890909 108.78 21.4309091 109.052727 21.5836364 109.325455 21.7363636 109.641818 21.8781818 110.007273 22.0090909 110.372727 22.14 110.836364 22.2054545 111.392727 22.2054545 111.785455 22.2054545 112.118182 22.1618182 112.390909 22.08 112.663636 21.9981818 112.881818 21.8890909 113.045455 21.7472727 113.209091 21.6054545 113.329091 21.4472727 113.405455 21.2727273 113.481818 21.0981818 113.52 20.9181818 113.52 20.7327273 113.52 20.3945455 113.405455 20.1163636 113.176364 19.8981818 112.947273 19.68 112.647273 19.4945455 112.276364 19.3309091 111.905455 19.1727273 111.48 19.0254545 111.005455 18.8890909 110.530909 18.7527273 110.050909 18.5945455 109.56 18.42 109.069091 18.2454545 108.583636 18.0381818 108.109091 17.7927273 107.634545 17.5472727 107.209091 17.2363636 106.838182 16.86 106.467273 16.4836364 106.167273 16.02 105.938182 15.4745455 105.709091 14.9290909 105.594545 14.2690909 105.594545 13.4945455 105.594545 12.7745455 105.730909 12.0872727 106.014545 11.4381818 106.292727 10.7890909 106.707273 10.2218182 107.263636 9.73090909 107.82 9.24 108.518182 8.85272727 109.358182 8.56363636 110.198182 8.27454545 111.18 8.13272727 112.303636 8.13272727 112.914545 8.13272727 113.509091 8.18727273 114.081818 8.29636364 114.654545 8.40545455 115.189091 8.55818182 115.696364 8.75454545 116.198182 8.95090909 116.656364 9.18545455 117.070909 9.45272727 117.485455 9.72 117.850909 10.0090909 118.167273 10.3254545L117.021818 12.1090909 117.010909 12.12ZM133.276364 12.4309091C133.123636 12.6163636 132.976364 12.7636364 132.834545 12.8727273 132.692727 12.9818182 132.490909 13.0363636 132.229091 13.0363636 131.967273 13.0363636 131.749091 12.9763636 131.552727 12.8563636 131.350909 12.7363636 131.121818 12.6054545 130.870909 12.4527273 130.62 12.3054545 130.325455 12.1745455 129.987273 12.0545455 129.649091 11.9345455 129.229091 11.8745455 128.727273 11.8745455 128.105455 11.8745455 127.570909 11.9890909 127.112727 12.2181818 126.654545 12.4472727 126.289091 12.7745455 125.994545 13.2 125.7 13.6254545 125.481818 14.1490909 125.34 14.7654545 125.198182 15.3818182 125.127273 16.08 125.127273 16.8545455 125.127273 18.48 125.438182 19.7290909 126.070909 20.6018182 126.698182 21.4745455 127.56 21.9109091 128.661818 21.9109091 129.250909 21.9109091 129.72 21.84 130.063636 21.6872727 130.407273 21.54 130.696364 21.3763636 130.936364 21.1963636 131.176364 21.0163636 131.394545 20.8527273 131.596364 20.6945455 131.798182 20.5418182 132.049091 20.4654545 132.36 20.4654545 132.763636 20.4654545 133.069091 20.6127273 133.276364 20.9072727L134.749091 22.7236364C134.225455 23.3236364 133.674545 23.8145455 133.096364 24.1909091 132.518182 24.5672727 131.923636 24.8618182 131.318182 25.0745455 130.712727 25.2872727 130.101818 25.4345455 129.496364 25.5163636 128.885455 25.5981818 128.290909 25.6363636 127.712727 25.6363636 126.676364 25.6363636 125.683636 25.44 124.745455 25.0472727 123.801818 24.6545455 122.972727 24.0872727 122.258182 23.34 121.543636 22.5927273 120.976364 21.6763636 120.556364 20.5854545 120.136364 19.4945455 119.923636 18.2509091 119.923636 16.8545455 119.923636 15.6327273 120.103636 14.4927273 120.474545 13.4236364 120.84 12.36 121.38 11.4381818 122.094545 10.6581818 122.809091 9.87818182 123.692727 9.26727273 124.745455 8.81454545 125.798182 8.36727273 127.014545 8.14363636 128.4 8.14363636 129.785455 8.14363636 130.898182 8.35636364 131.901818 8.78181818 132.905455 9.20727273 133.810909 9.82909091 134.618182 10.6472727L133.276364 12.4309091 133.276364 12.4309091ZM141.801818 9.89454545C142.412727 9.37090909 143.072727 8.94545455 143.787273 8.62363636 144.501818 8.30181818 145.358182 8.14363636 146.350909 8.14363636 147.278182 8.14363636 148.101818 8.30181818 148.810909 8.62363636 149.52 8.94545455 150.130909 9.39272727 150.621818 9.96545455 151.112727 10.5381818 151.483636 11.22 151.734545 12.0109091 151.985455 12.8018182 152.110909 13.6636364 152.110909 14.5854545L152.110909 25.3690909 147.038182 25.3690909 147.038182 14.5909091C147.038182 13.7618182 146.847273 13.1181818 146.465455 12.6545455 146.083636 12.1909091 145.521818 11.9563636 144.78 11.9563636 144.223636 11.9563636 143.7 12.0763636 143.214545 12.3109091 142.729091 12.5454545 142.26 12.8672727 141.801818 13.2654545L141.801818 25.3745455 136.729091 25.3745455 136.729091.878181818 141.801818.878181818 141.801818 9.89454545ZM98.9727273 10.6145455 99.2890909 8.61818182C99.3436364 8.30181818 99.6163636 8.06727273 99.9381818 8.06727273L100.576364 8.06727273 100.56 10.62 98.9727273 10.62 98.9727273 10.6145455Z"/><path fill="#222F5D" fill-rule="nonzero" d="M102.147273,10.6309091 L101.847273,8.61818182 C101.792727,8.30181818 101.52,8.06727273 101.198182,8.06727273 L100.56,8.06727273 L100.576364,10.6254545 L102.147273,10.6363636 L102.147273,10.6309091 Z"/></g></svg>