<svg width="160px" height="auto" viewBox="0 0 137 37" fill="none" xmlns="http://www.w3.org/2000/svg">
<g clip-path="url(#clip0)">
<path d="M18.2327 0C11.9902 0.118818 5.83857 1.53036 0.160156 4.14692V32.8531C5.83988 35.4657 11.9907 36.8771 18.2327 37C24.9637 37 30.9627 35.1343 36.2969 32.8531V4.14692C30.9627 1.85721 24.9974 0 18.2327 0Z" fill="white"/>
<path d="M18.2327 0C11.9902 0.118818 5.83857 1.53036 0.160156 4.14692V24.2709H8.83466C7.60024 22.5072 6.87034 20.4355 6.72466 18.2821C6.57898 16.1287 7.02313 13.9763 8.0086 12.0601C8.99407 10.1438 10.483 8.53725 12.3127 7.4159C14.1425 6.29456 16.2428 5.7015 18.3842 5.7015C20.5256 5.7015 22.6259 6.29456 24.4557 7.4159C26.2854 8.53725 27.7743 10.1438 28.7598 12.0601C29.7453 13.9763 30.1894 16.1287 30.0437 18.2821C29.8981 20.4355 29.1681 22.5072 27.9337 24.2709H36.2969V4.14692C30.9627 1.85721 24.9974 0 18.2327 0ZM21.9684 23.9995C23.3824 23.2045 24.4985 21.9638 25.1454 20.4678C25.7923 18.9717 25.9342 17.3031 25.5494 15.7179C25.1646 14.1327 24.2743 12.7186 23.0152 11.6926C21.7561 10.6667 20.1977 10.0855 18.5793 10.0384C16.9608 9.99127 15.3718 10.4808 14.056 11.4318C12.7402 12.3828 11.7704 13.7427 11.2954 15.3028C10.8205 16.863 10.8666 18.5371 11.4267 20.0683C11.9868 21.5995 13.03 22.9031 14.3961 23.7791V28.5874H0.160156V32.8276C5.83988 35.4403 11.9907 36.8517 18.2327 36.9746C24.9637 36.9746 30.9627 35.1089 36.2969 32.8276V28.5874H21.9937L21.9684 23.9995Z" fill="#FAA61A"/>
<path d="M83.1603 12.3051C81.8964 11.5842 80.4688 11.2053 79.0166 11.2053C77.5643 11.2053 76.1368 11.5842 74.8728 12.3051L74.2334 12.6783V27.0949C74.292 27.3888 74.4497 27.6532 74.6798 27.8431C74.9099 28.033 75.1981 28.1368 75.4955 28.1368C75.7928 28.1368 76.081 28.033 76.3111 27.8431C76.5412 27.6532 76.6989 27.3888 76.7575 27.0949V25.2632V22.7784C77.4815 22.9767 78.2285 23.0766 78.9787 23.0752C80.4305 23.0792 81.8579 22.699 83.1182 21.9728L83.7577 21.6081V12.7207L83.1603 12.3051ZM81.242 20.0053C80.5403 20.3132 79.7859 20.4802 79.0208 20.4972C78.2554 20.4831 77.5003 20.3159 76.7996 20.0053V14.2811C77.5003 13.9705 78.2554 13.8033 79.0208 13.7892C79.7859 13.8061 80.5403 13.9732 81.242 14.2811V20.0053Z" fill="#231F20"/>
<path d="M88.3432 12.305L87.6953 12.6781V23.567L88.3432 23.9316C89.6061 24.651 91.0321 25.029 92.4827 25.029C93.9333 25.029 95.3593 24.651 96.6222 23.9316L97.2701 23.567V12.7205L96.6222 12.3474C95.3593 11.628 93.9333 11.25 92.4827 11.25C91.0321 11.25 89.6061 11.628 88.3432 12.3474V12.305ZM92.55 13.7891C93.3153 13.804 94.0702 13.9712 94.7712 14.2809V21.9642C94.0748 22.2825 93.3189 22.4472 92.5542 22.4472C91.7895 22.4472 91.0336 22.2825 90.3372 21.9642V14.2809C91.0353 13.9712 91.7874 13.804 92.55 13.7891Z" fill="#231F20"/>
<path d="M114.544 12.3051L113.904 12.6782V23.5671L114.544 23.9317C115.808 24.6526 117.235 25.0315 118.687 25.0315C120.14 25.0315 121.567 24.6526 122.831 23.9317C123.111 23.7538 123.311 23.4738 123.39 23.1504C123.469 22.827 123.421 22.4853 123.255 22.1969C123.09 21.9085 122.82 21.6958 122.503 21.6035C122.185 21.5111 121.845 21.5462 121.552 21.7014C120.783 22.1419 119.922 22.3951 119.038 22.4407C118.154 22.4864 117.272 22.3232 116.462 21.9643V19.5728H118.683C120.138 19.577 121.568 19.1969 122.831 18.4703L123.471 18.1057V12.7206L122.831 12.3475C121.567 11.6266 120.14 11.2477 118.687 11.2477C117.235 11.2477 115.808 11.6266 114.544 12.3475V12.3051ZM118.683 13.7892C119.448 13.8061 120.203 13.9732 120.904 14.281V16.5029C120.203 16.8107 119.448 16.9778 118.683 16.9947H116.462V14.281C117.164 13.9732 117.918 13.8061 118.683 13.7892Z" fill="#231F20"/>
<path d="M109.942 12.1015C108.75 11.5269 107.443 11.2367 106.122 11.2535C104.677 11.2496 103.255 11.6267 101.999 12.3475L101.352 12.7206V23.9232C101.395 24.235 101.549 24.5205 101.785 24.727C102.02 24.9336 102.322 25.0474 102.635 25.0474C102.947 25.0474 103.249 24.9336 103.485 24.727C103.72 24.5205 103.874 24.235 103.918 23.9232V14.298C104.617 13.9825 105.373 13.8123 106.139 13.7976C107.053 13.7956 107.956 14.0015 108.781 14.3997C108.931 14.4766 109.094 14.5229 109.261 14.5362C109.429 14.5494 109.597 14.5293 109.757 14.4769C109.917 14.4246 110.065 14.341 110.193 14.231C110.32 14.121 110.425 13.9867 110.501 13.8358C110.578 13.6849 110.624 13.5203 110.637 13.3515C110.65 13.1827 110.63 13.0129 110.578 12.8519C110.526 12.6908 110.443 12.5417 110.334 12.4129C110.225 12.2842 110.092 12.1784 109.942 12.1015Z" fill="#231F20"/>
<path d="M137 12.5086C137.014 12.33 136.992 12.1503 136.934 11.9809C136.876 11.8114 136.784 11.6559 136.663 11.5242C136.543 11.3924 136.396 11.2873 136.233 11.2154C136.07 11.1435 135.895 11.1063 135.717 11.1063C135.539 11.1063 135.363 11.1435 135.2 11.2154C135.037 11.2873 134.891 11.3924 134.77 11.5242C134.65 11.6559 134.558 11.8114 134.5 11.9809C134.442 12.1503 134.419 12.33 134.434 12.5086V16.011V16.8591H129.991V12.5086C130.006 12.33 129.983 12.1503 129.925 11.9809C129.867 11.8114 129.775 11.6559 129.654 11.5242C129.534 11.3924 129.388 11.2873 129.225 11.2154C129.062 11.1435 128.886 11.1063 128.708 11.1063C128.53 11.1063 128.354 11.1435 128.192 11.2154C128.029 11.2873 127.882 11.3924 127.762 11.5242C127.641 11.6559 127.549 11.8114 127.491 11.9809C127.433 12.1503 127.411 12.33 127.425 12.5086V16.2146V23.8469C127.451 24.1718 127.598 24.4749 127.835 24.6959C128.073 24.9169 128.385 25.0396 128.708 25.0396C129.032 25.0396 129.343 24.9169 129.581 24.6959C129.819 24.4749 129.965 24.1718 129.991 23.8469V20.353V19.505H134.434V23.83C134.46 24.1549 134.606 24.458 134.844 24.679C135.082 24.9 135.393 25.0227 135.717 25.0227C136.04 25.0227 136.352 24.9 136.589 24.679C136.827 24.458 136.974 24.1549 137 23.83V20.1156V12.5086Z" fill="#231F20"/>
<path d="M70.0437 17.8088L69.3958 17.4357C69.1476 17.2922 68.892 17.162 68.6302 17.0456C68.8834 16.9465 69.1259 16.8214 69.3538 16.6725V12.7206C68.0114 11.8896 66.4908 11.3953 64.9197 11.2789C63.5856 11.2681 62.2758 11.6386 61.142 12.3474L60.4941 12.7206V23.5925L61.142 23.9656C62.4049 24.685 63.8309 25.063 65.2815 25.063C66.7322 25.063 68.1581 24.685 69.4211 23.9656L70.0605 23.5925L70.0437 17.8088ZM63.1024 14.1538C63.6856 13.8885 64.314 13.7388 64.9534 13.7128C65.5995 13.7145 66.2393 13.8411 66.8381 14.0859C66.8381 14.8407 66.8381 15.3834 66.8381 16.1382C66.2107 16.2737 65.5695 16.3335 64.9282 16.3163H64.7851V18.9113H65.3152C66.0712 18.9179 66.8222 19.035 67.5448 19.259C67.5448 20.0137 67.5448 21.2349 67.5448 21.9812C66.85 22.3108 66.0915 22.4817 65.3236 22.4817C64.5557 22.4817 63.7972 22.3108 63.1024 21.9812V14.1538Z" fill="#231F20"/>
<path d="M47.6463 12.1864L47.0068 12.5595V23.4398L47.6463 23.813C48.9102 24.5339 50.3377 24.9128 51.79 24.9128C53.2423 24.9128 54.6698 24.5339 55.9338 23.813C56.0966 23.7403 56.2426 23.6342 56.3623 23.5013C56.4821 23.3685 56.573 23.212 56.6293 23.0417C56.6856 22.8714 56.7059 22.6911 56.6891 22.5124C56.6723 22.3337 56.6186 22.1606 56.5315 22.004C56.4444 21.8474 56.3259 21.7109 56.1834 21.6032C56.041 21.4955 55.8778 21.419 55.7043 21.3785C55.5308 21.338 55.3508 21.3345 55.1759 21.3682C55.001 21.4019 54.835 21.4721 54.6885 21.5742C53.8138 22.0736 52.8248 22.3338 51.8195 22.3289C51.0544 22.312 50.2999 22.1449 49.5983 21.837V19.4456H51.8195C53.2732 19.4524 54.7033 19.0752 55.9674 18.3516L56.6068 17.9785V12.5595L55.9674 12.1864C54.7035 11.4654 53.2759 11.0865 51.8237 11.0865C50.3714 11.0865 48.9439 11.4654 47.6799 12.1864H47.6463ZM51.7858 13.6704C52.5541 13.6832 53.3121 13.8504 54.0154 14.1623V16.3841C53.3091 16.6855 52.5526 16.8495 51.7858 16.8675H49.5646V14.1623C50.2647 13.8495 51.0201 13.6822 51.7858 13.6704Z" fill="#231F20"/>
</g>
<defs>
<clipPath id="clip0">
<rect width="137" height="37" fill="white"/>
</clipPath>
</defs>
</svg>
