<?xml version="1.0" encoding="UTF-8" standalone="no"?>
<svg
   xmlns:dc="http://purl.org/dc/elements/1.1/"
   xmlns:cc="http://creativecommons.org/ns#"
   xmlns:rdf="http://www.w3.org/1999/02/22-rdf-syntax-ns#"
   xmlns:svg="http://www.w3.org/2000/svg"
   xmlns="http://www.w3.org/2000/svg"
   xmlns:sodipodi="http://sodipodi.sourceforge.net/DTD/sodipodi-0.dtd"
   xmlns:inkscape="http://www.inkscape.org/namespaces/inkscape"
   sodipodi:docname="HBMLS-web.svg"
   inkscape:version="1.0 (4035a4fb49, 2020-05-01)"
   id="svg11681"
   version="1.1"
   viewBox="0 0 394.22919 173.03749"
   height="auto"
   width="160px">
  <defs
     id="defs11675">
    <rect
       id="rect117"
       height="71.758208"
       width="5.6123738"
       y="209.07072"
       x="233.71528" />
    <rect
       id="rect107"
       height="26.458334"
       width="380.83965"
       y="319.71466"
       x="6.4141415" />
    <rect
       id="rect101"
       height="30.467172"
       width="389.25821"
       y="316.50759"
       x="2.0044192" />
    <rect
       id="rect93"
       height="27.260101"
       width="391.26263"
       y="320.91731"
       x="1.6035354" />
    <rect
       id="rect87"
       height="77.370581"
       width="393.66793"
       y="330.13764"
       x="5.6123738" />
    <rect
       id="rect81"
       height="16.035353"
       width="392.0644"
       y="331.34029"
       x="0.80176768" />
    <rect
       id="rect75"
       height="18.440657"
       width="388.85733"
       y="329.33587"
       x="2.8061869" />
  </defs>
  <sodipodi:namedview
     inkscape:document-rotation="0"
     inkscape:window-maximized="0"
     inkscape:window-y="83"
     inkscape:window-x="21"
     inkscape:window-height="745"
     inkscape:window-width="1798"
     showborder="true"
     units="cm"
     showgrid="false"
     inkscape:current-layer="g59"
     inkscape:document-units="cm"
     inkscape:cy="320.50235"
     inkscape:cx="823.29024"
     inkscape:zoom="0.66"
     inkscape:pageshadow="2"
     inkscape:pageopacity="0.0"
     borderopacity="1.0"
     bordercolor="#666666"
     pagecolor="#ffffff"
     id="base" />
  <metadata
     id="metadata11678">
    <rdf:RDF>
      <cc:Work
         rdf:about="">
        <dc:format>image/svg+xml</dc:format>
        <dc:type
           rdf:resource="http://purl.org/dc/dcmitype/StillImage" />
        <dc:title></dc:title>
      </cc:Work>
    </rdf:RDF>
  </metadata>
  <g
     transform="translate(0,-177.00001)"
     id="layer1"
     inkscape:groupmode="layer"
     inkscape:label="Layer 1">
    <g
       transform="matrix(1.6829819,0,0,1.6829819,-0.52023461,-144.72992)"
       id="g59">
      <g
         transform="matrix(0.35277777,0,0,0.35277777,0.52047193,177.41912)"
         id="g11491"
         style="fill:none;stroke:none">
        <path
           d="M -0.98,-0.52 H 679.696 V 341.14 H -0.98 Z"
           style="fill:none;fill-opacity:1;fill-rule:nonzero;stroke:none;stroke-width:0.38491;stroke-linecap:butt;stroke-linejoin:miter;stroke-miterlimit:4;stroke-dasharray:none;stroke-opacity:1"
           id="path11493"
           inkscape:connector-curvature="0" />
      </g>
      <path
         d="m 4.6627864,205.80112 c 0,2.09868 32.9240516,3.52637 60.5345576,9.23572 20.968052,4.3367 33.329386,11.46387 33.121246,21.04108 -0.351367,16.06515 -26.674937,26.7342 -47.005169,32.15111 -9.301692,2.4832 -13.288079,3.50026 -13.288079,3.50026 0,0 5.57671,1.57233 19.332221,1.57233 54.257637,0 81.593707,-26.63754 81.593707,-46.68943 0,-16.99119 -19.79542,-33.31245 -71.113739,-33.31245 -28.697412,0 -63.1747446,10.23055 -63.1747446,12.50138"
         style="fill:#ff6f00;fill-opacity:1;fill-rule:nonzero;stroke:none;stroke-width:0.352778"
         id="path11499"
         inkscape:connector-curvature="0" />
      <path
         d="m 15.835966,235.88107 v -16.52411 h 3.545772 v 6.50416 h 6.949373 v -6.50416 h 3.542948 v 16.52411 h -3.542948 v -7.22524 h -6.949373 v 7.22524 z"
         style="fill:#000000;fill-opacity:1;fill-rule:nonzero;stroke:none;stroke-width:0.352778"
         id="path11501"
         inkscape:connector-curvature="0" />
      <path
         d="m 41.544652,230.13185 c -0.430035,0.13511 -1.116189,0.29775 -2.050343,0.48366 -0.934508,0.18874 -1.543405,0.37218 -1.830213,0.55386 -0.43956,0.2921 -0.661458,0.66428 -0.661458,1.11478 0,0.4452 0.174979,0.82691 0.526346,1.15076 0.352777,0.32385 0.800804,0.48366 1.342318,0.48366 0.607836,0 1.186392,-0.18733 1.734961,-0.56339 0.410633,-0.28539 0.676629,-0.63394 0.803275,-1.04739 0.08961,-0.27023 0.135114,-0.78564 0.135114,-1.54623 z m -4.504618,-2.56999 -3.055409,-0.51822 c 0.343252,-1.15606 0.934509,-2.01331 1.772354,-2.56999 0.839259,-0.5581 2.084917,-0.83361 3.73733,-0.83361 1.500362,0 2.620785,0.16792 3.355268,0.50129 0.733074,0.33373 1.249892,0.75812 1.549049,1.27353 0.301625,0.514 0.450495,1.45944 0.450495,2.83598 l -0.03563,3.69464 c 0,1.05551 0.05362,1.82986 0.162629,2.32869 0.108656,0.49883 0.308681,1.03505 0.603605,1.60549 h -3.33093 c -0.08678,-0.20955 -0.195792,-0.52387 -0.322437,-0.93557 -0.05786,-0.18768 -0.0949,-0.30868 -0.121357,-0.37218 -0.574675,0.52494 -1.189214,0.92181 -1.842206,1.18498 -0.657577,0.26176 -1.353254,0.39159 -2.097617,0.39159 -1.309158,0 -2.341033,-0.33232 -3.097741,-1.00189 -0.753886,-0.66852 -1.128536,-1.51307 -1.128536,-2.53436 0,-0.67663 0.170744,-1.28023 0.512586,-1.81081 0.343254,-0.52775 0.8255,-0.93274 1.444273,-1.21673 0.618773,-0.27975 1.511652,-0.52775 2.676173,-0.7373 1.573742,-0.27975 2.664883,-0.53869 3.272718,-0.77858 v -0.31539 c 0,-0.60924 -0.161218,-1.04175 -0.480835,-1.30245 -0.317148,-0.25753 -0.923221,-0.38841 -1.809398,-0.38841 -0.597958,0 -1.06539,0.11007 -1.400175,0.33338 -0.334785,0.22189 -0.607835,0.61065 -0.81421,1.16592"
         style="fill:#000000;fill-opacity:1;fill-rule:nonzero;stroke:none;stroke-width:0.352778"
         id="path11503"
         inkscape:connector-curvature="0" />
      <path
         d="m 60.746346,235.88107 h -3.369381 v -6.11046 c 0,-1.29258 -0.0702,-2.12761 -0.212371,-2.50649 -0.147463,-0.38029 -0.377473,-0.67522 -0.704146,-0.88618 -0.321027,-0.20814 -0.709435,-0.31538 -1.166987,-0.31538 -0.583142,0 -1.105255,0.15134 -1.56845,0.45191 -0.461434,0.30057 -0.78105,0.6985 -0.952148,1.19344 -0.173567,0.49742 -0.257527,1.41394 -0.257527,2.75061 v 5.42255 h -3.366559 v -11.97116 h 3.126669 v 1.7586 c 1.111956,-1.35326 2.505427,-2.02988 4.192058,-2.02988 0.742599,0 1.424869,0.12805 2.036586,0.37888 0.614539,0.24941 1.081971,0.57326 1.395941,0.96449 0.318559,0.39018 0.5334,0.83256 0.660048,1.32997 0.124177,0.4946 0.186267,1.20439 0.186267,2.12902 z"
         style="fill:#000000;fill-opacity:1;fill-rule:nonzero;stroke:none;stroke-width:0.352778"
         id="path11505"
         inkscape:connector-curvature="0" />
      <path
         d="m 63.97779,232.46477 3.374673,-0.48366 c 0.14605,0.61313 0.437091,1.08303 0.876652,1.403 0.439563,0.31962 1.0541,0.47943 1.846439,0.47943 0.869599,0 1.524,-0.1517 1.963561,-0.4505 0.294923,-0.21096 0.442383,-0.49213 0.442383,-0.8449 0,-0.24236 -0.07973,-0.44098 -0.238125,-0.59938 -0.171095,-0.15028 -0.542925,-0.28786 -1.127477,-0.41627 -2.716035,-0.5648 -4.435827,-1.0788 -5.160785,-1.54482 -1.008592,-0.6477 -1.511655,-1.54481 -1.511655,-2.69381 0,-1.03787 0.435682,-1.90747 1.306338,-2.61549 0.871009,-0.70556 2.220029,-1.05833 4.048829,-1.05833 1.739196,0 3.033183,0.26458 3.880557,0.79904 0.847373,0.53481 1.429101,1.32432 1.748718,2.36749 l -3.175,0.55139 c -0.133702,-0.46602 -0.391229,-0.82268 -0.770467,-1.06821 -0.378883,-0.24941 -0.920395,-0.37465 -1.625952,-0.37465 -0.883356,0 -1.518708,0.11712 -1.903235,0.35136 -0.254706,0.16546 -0.382765,0.37748 -0.382765,0.64065 0,0.22613 0.110067,0.41769 0.337609,0.57609 0.298802,0.20955 1.350433,0.50729 3.14466,0.89041 1.789996,0.38276 3.044121,0.85266 3.753557,1.40829 0.701675,0.56338 1.053041,1.34902 1.053041,2.35479 0,1.09855 -0.486481,2.04258 -1.460852,2.82786 -0.97155,0.79093 -2.417233,1.18499 -4.32294,1.18499 -1.73355,0 -3.104798,-0.33056 -4.11621,-0.9906 -1.012825,-0.66005 -1.671463,-1.55999 -1.981554,-2.69417"
         style="fill:#000000;fill-opacity:1;fill-rule:nonzero;stroke:none;stroke-width:0.352778"
         id="path11507"
         inkscape:connector-curvature="0" />
      <path
         d="m 86.833911,230.13185 c -0.430038,0.13511 -1.11619,0.29775 -2.050698,0.48366 -0.934157,0.18874 -1.54446,0.37218 -1.829858,0.55386 -0.439561,0.2921 -0.661459,0.66428 -0.661459,1.11478 0,0.4452 0.1778,0.82691 0.524934,1.15076 0.354189,0.32385 0.802216,0.48366 1.343731,0.48366 0.607835,0 1.186392,-0.18733 1.737783,-0.56339 0.407811,-0.28539 0.673804,-0.63394 0.800452,-1.04739 0.08819,-0.27023 0.135115,-0.78564 0.135115,-1.54623 z m -4.504973,-2.56999 -3.055057,-0.51822 c 0.343255,-1.15606 0.934509,-2.01331 1.772357,-2.56999 0.839258,-0.5581 2.084917,-0.83361 3.736975,-0.83361 1.500717,0 2.62114,0.16792 3.355623,0.50129 0.73307,0.33373 1.251302,0.75812 1.549046,1.27353 0.301625,0.514 0.450498,1.45944 0.450498,2.83598 l -0.03563,3.69464 c 0,1.05551 0.05362,1.82986 0.162632,2.32869 0.108653,0.49883 0.308678,1.03505 0.60325,1.60549 h -3.330575 c -0.08678,-0.20955 -0.195792,-0.52387 -0.319617,-0.93557 -0.06068,-0.18768 -0.09807,-0.30868 -0.124177,-0.37218 -0.574675,0.52494 -1.187805,0.92181 -1.842206,1.18498 -0.654757,0.26176 -1.353257,0.39159 -2.097617,0.39159 -1.309158,0 -2.341033,-0.33232 -3.097742,-1.00189 -0.753885,-0.66852 -1.129948,-1.51307 -1.129948,-2.53436 0,-0.67663 0.170746,-1.28023 0.515408,-1.81081 0.341842,-0.52775 0.82409,-0.93274 1.442863,-1.21673 0.618771,-0.27975 1.511652,-0.52775 2.676171,-0.7373 1.573741,-0.27975 2.664883,-0.53869 3.272721,-0.77858 v -0.31539 c 0,-0.60924 -0.161221,-1.04175 -0.479425,-1.30245 -0.318558,-0.25753 -0.924631,-0.38841 -1.810808,-0.38841 -0.598313,0 -1.06539,0.11007 -1.400175,0.33338 -0.334788,0.22189 -0.607838,0.61065 -0.814565,1.16592"
         style="fill:#000000;fill-opacity:1;fill-rule:nonzero;stroke:none;stroke-width:0.352778"
         id="path11509"
         inkscape:connector-curvature="0" />
      <path
         d="m 102.24713,228.67805 v 4.41925 h 3.28262 c 1.28024,0 2.09057,-0.0346 2.43242,-0.10195 0.52776,-0.0924 0.95885,-0.3115 1.28976,-0.66146 0.33056,-0.34854 0.49601,-0.81703 0.49601,-1.40159 0,-0.496 -0.13088,-0.91616 -0.38313,-1.26224 -0.2547,-0.34431 -0.62547,-0.59795 -1.10913,-0.75635 -0.48508,-0.15734 -1.52965,-0.23566 -3.14362,-0.23566 z m 0,-6.57048 v 3.81988 h 2.32624 c 1.38077,0 2.23944,-0.018 2.57423,-0.055 0.60642,-0.0677 1.08304,-0.26599 1.43334,-0.59407 0.34572,-0.32526 0.51929,-0.7553 0.51929,-1.28976 0,-0.51118 -0.14887,-0.92463 -0.44767,-1.2446 -0.30057,-0.31962 -0.74437,-0.514 -1.33669,-0.57997 -0.35278,-0.0385 -1.36173,-0.0564 -3.03037,-0.0564 z m -3.545423,-2.75061 h 7.018183 c 1.39172,0 2.4282,0.055 3.11152,0.16404 0.68228,0.10725 1.294,0.33479 1.83305,0.67945 0.53728,0.34714 0.98532,0.80892 1.34762,1.38219 0.35983,0.57432 0.53869,1.21955 0.53869,1.93181 0,0.77434 -0.22154,1.48413 -0.66251,2.13183 -0.44381,0.64488 -1.04741,1.13136 -1.80553,1.45239 1.07068,0.29492 1.89372,0.79375 2.46804,1.4993 0.57468,0.70556 0.8615,1.5367 0.8615,2.49167 0,0.75107 -0.18487,1.48414 -0.5567,2.19252 -0.37077,0.70943 -0.87665,1.2774 -1.52013,1.70321 -0.64205,0.42439 -1.4358,0.68474 -2.37985,0.7814 -0.58702,0.0603 -2.01613,0.0977 -4.27321,0.1143 h -5.980673 z"
         style="fill:#ffffff;fill-opacity:1;fill-rule:nonzero;stroke:none;stroke-width:0.352778"
         id="path11511"
         inkscape:connector-curvature="0" />
      <path
         d="m 117.48721,223.90991 h 3.36903 v 11.96975 h -3.36903 z m 0,-4.55436 h 3.36903 v 2.92982 h -3.36903 z"
         style="fill:#ffffff;fill-opacity:1;fill-rule:nonzero;stroke:none;stroke-width:0.352778"
         id="path11513"
         inkscape:connector-curvature="0" />
      <path
         d="m 128.08007,229.89479 c 0,1.1878 0.29915,2.09585 0.89852,2.72697 0.59937,0.63006 1.34091,0.94544 2.21721,0.94544 0.87912,0 1.61502,-0.31538 2.21051,-0.94544 0.59372,-0.63112 0.89429,-1.54729 0.89429,-2.75026 0,-1.17157 -0.30057,-2.07257 -0.89429,-2.70369 -0.59549,-0.63253 -1.33139,-0.94685 -2.21051,-0.94685 -0.8763,0 -1.61784,0.31432 -2.21721,0.94685 -0.59937,0.63112 -0.89852,1.53917 -0.89852,2.72698 m -3.45052,-0.16934 c 0,-1.05163 0.27693,-2.06869 0.8255,-3.054 0.55527,-0.9853 1.33385,-1.73496 2.34527,-2.25566 1.01,-0.51681 2.13853,-0.77575 3.38455,-0.77575 1.92369,0 3.50167,0.58843 4.73075,1.76389 1.22907,1.17545 1.84361,2.66206 1.84361,4.45769 0,1.8094 -0.61983,3.31153 -1.86302,4.50074 -1.23895,1.19345 -2.80282,1.78718 -4.68947,1.78718 -1.16452,0 -2.27648,-0.24801 -3.33481,-0.7426 -1.05974,-0.49742 -1.86161,-1.22379 -2.41688,-2.18158 -0.54857,-0.95885 -0.8255,-2.12337 -0.8255,-3.49991"
         style="fill:#ffffff;fill-opacity:1;fill-rule:nonzero;stroke:none;stroke-width:0.352778"
         id="path11515"
         inkscape:connector-curvature="0" />
      <path
         d="m 142.10581,235.88107 v -16.52411 h 5.30542 l 3.18735,11.2709 3.15031,-11.2709 h 5.31918 v 16.52411 h -3.29495 v -13.00868 l -3.4865,13.00868 h -3.41348 l -3.47521,-13.00868 v 13.00868 z"
         style="fill:#000000;fill-opacity:1;fill-rule:nonzero;stroke:none;stroke-width:0.352778"
         id="path11517"
         inkscape:connector-curvature="0" />
      <path
         d="m 171.10379,228.86961 c -0.0247,-0.91651 -0.27552,-1.6136 -0.75389,-2.09056 -0.48224,-0.47801 -1.06115,-0.71508 -1.74731,-0.71508 -0.73589,0 -1.34232,0.24942 -1.82174,0.75494 -0.47943,0.50165 -0.71649,1.18675 -0.70838,2.0507 z m -0.19015,3.20111 3.35562,0.52917 c -0.43285,1.15746 -1.11513,2.03799 -2.04505,2.6416 -0.92886,0.60501 -2.09197,0.90805 -3.49074,0.90805 -2.21156,0 -3.85021,-0.67769 -4.91278,-2.04224 -0.83643,-1.08585 -1.25659,-2.46097 -1.25659,-4.12291 0,-1.98296 0.54857,-3.5373 1.65241,-4.66055 1.10243,-1.12324 2.49555,-1.6838 4.17936,-1.6838 1.89335,0 3.39019,0.58843 4.48133,1.76389 1.09432,1.17545 1.61784,2.97638 1.57092,5.40314 h -8.43209 c 0.0222,0.9398 0.2921,1.67005 0.81174,2.19392 0.5207,0.52211 1.16699,0.78387 1.93886,0.78387 0.52917,0 0.97297,-0.13617 1.33245,-0.40498 0.35983,-0.27164 0.6297,-0.70838 0.81456,-1.30916"
         style="fill:#000000;fill-opacity:1;fill-rule:nonzero;stroke:none;stroke-width:0.352778"
         id="path11519"
         inkscape:connector-curvature="0" />
      <path
         d="m 180.85633,229.63585 c 0,1.27881 0.18874,2.20345 0.56339,2.77248 0.54433,0.82691 1.30245,1.23895 2.27647,1.23895 0.7747,0 1.43475,-0.30868 1.97767,-0.92886 0.54152,-0.61877 0.81421,-1.54623 0.81421,-2.77672 0,-1.37689 -0.26599,-2.36608 -0.79234,-2.9725 -0.52775,-0.60219 -1.20015,-0.90523 -2.02141,-0.90523 -0.80081,0 -1.47179,0.2988 -2.00801,0.8957 -0.5401,0.59514 -0.80998,1.48802 -0.80998,2.67618 m 8.98737,6.24522 h -3.12667 v -1.76001 c -0.52106,0.6851 -1.13418,1.19204 -1.83974,1.52577 -0.70838,0.33619 -1.42063,0.50271 -2.13889,0.50271 -1.46332,0 -2.71463,-0.55245 -3.75497,-1.66159 -1.04316,-1.10807 -1.56421,-2.65289 -1.56421,-4.63726 0,-2.02848 0.50729,-3.57188 1.52153,-4.62598 1.01423,-1.05692 2.29728,-1.58467 3.84316,-1.58467 1.42487,0 2.65289,0.55668 3.69041,1.66722 v -5.9503 h 3.36938 z"
         style="fill:#000000;fill-opacity:1;fill-rule:nonzero;stroke:none;stroke-width:0.352778"
         id="path11521"
         inkscape:connector-curvature="0" />
      <path
         d="m 142.08217,254.76562 v -10.51454 h 1.47744 v 9.2717 h 5.50368 v 1.24284 z"
         style="fill:#000000;fill-opacity:1;fill-rule:nonzero;stroke:none;stroke-width:0.352778"
         id="path11523"
         inkscape:connector-curvature="0" />
      <path
         d="m 150.60811,247.15056 h 1.37265 v 7.61365 h -1.37265 z m 0,-2.9009 h 1.37265 v 1.48414 h -1.37265 z"
         style="fill:#000000;fill-opacity:1;fill-rule:nonzero;stroke:none;stroke-width:0.352778"
         id="path11525"
         inkscape:connector-curvature="0" />
      <path
         d="m 154.34967,254.76562 v -6.61317 h -1.21144 v -1.00189 h 1.21144 v -0.81175 c 0,-0.51117 0.0494,-0.89429 0.14746,-1.13947 0.13088,-0.33619 0.36371,-0.60783 0.69568,-0.81456 0.33372,-0.20955 0.79939,-0.31397 1.40017,-0.31397 0.38735,0 0.81315,0.0427 1.28164,0.12805 l -0.20673,1.12713 c -0.28645,-0.0483 -0.55527,-0.0716 -0.81033,-0.0716 -0.41733,0 -0.70837,0.084 -0.88617,0.25082 -0.17075,0.16934 -0.25471,0.48225 -0.25471,0.94262 v 0.70274 h 1.57656 v 1.00189 h -1.57656 v 6.61317 z"
         style="fill:#000000;fill-opacity:1;fill-rule:nonzero;stroke:none;stroke-width:0.352778"
         id="path11527"
         inkscape:connector-curvature="0" />
      <path
         d="m 159.34923,250.22501 h 4.52261 c -0.0621,-0.63958 -0.23283,-1.12183 -0.51964,-1.43862 -0.43815,-0.50165 -1.00189,-0.74824 -1.69898,-0.74824 -0.6297,0 -1.15887,0.19826 -1.58891,0.59372 -0.42862,0.39829 -0.66851,0.93028 -0.71508,1.59314 m 4.50744,2.08774 1.41817,0.16546 c -0.22613,0.77999 -0.63958,1.38359 -1.24319,1.81328 -0.6036,0.43003 -1.37795,0.6477 -2.31634,0.6477 -1.18533,0 -2.12372,-0.34432 -2.81834,-1.02941 -0.69426,-0.68474 -1.04175,-1.64959 -1.04175,-2.88678 0,-1.28305 0.35137,-2.27789 1.05445,-2.98485 0.70132,-0.70979 1.60937,-1.06257 2.72556,-1.06257 1.08726,0 1.97062,0.34713 2.65677,1.04034 0.6851,0.69321 1.02694,1.6704 1.02694,2.927 0,0.0773 -0.001,0.19156 -0.004,0.34466 h -6.0385 c 0.0494,0.83785 0.30162,1.47567 0.75494,1.92229 0.45226,0.4452 1.01565,0.66675 1.69087,0.66675 0.50306,0 0.93168,-0.12524 1.28728,-0.37465 0.35666,-0.24801 0.63923,-0.64206 0.84737,-1.18922"
         style="fill:#000000;fill-opacity:1;fill-rule:nonzero;stroke:none;stroke-width:0.352778"
         id="path11529"
         inkscape:connector-curvature="0" />
      <path
         d="m 170.70973,251.38671 1.39595,-0.1143 c 0.066,0.52635 0.21907,0.95779 0.46143,1.29399 0.23989,0.34008 0.61489,0.6089 1.12325,0.81845 0.50976,0.20955 1.08055,0.3115 1.71555,0.3115 0.56515,0 1.06539,-0.0773 1.49543,-0.23566 0.43109,-0.15734 0.75494,-0.37641 0.9659,-0.6477 0.21097,-0.27552 0.31398,-0.5789 0.31398,-0.90275 0,-0.32915 -0.10196,-0.61737 -0.30586,-0.86396 -0.19968,-0.24377 -0.53728,-0.45332 -1.00436,-0.62018 -0.30057,-0.11007 -0.96203,-0.28116 -1.99143,-0.514 -1.02517,-0.2286 -1.74449,-0.4505 -2.15653,-0.6544 -0.5334,-0.26317 -0.9331,-0.59126 -1.19486,-0.98002 -0.25894,-0.38982 -0.39264,-0.82656 -0.39264,-1.30916 0,-0.53022 0.16404,-1.02517 0.48224,-1.48801 0.32103,-0.46179 0.7867,-0.81316 1.403,-1.05022 0.61454,-0.23848 1.29928,-0.35948 2.05176,-0.35948 0.8255,0 1.55857,0.12664 2.1911,0.37747 0.63253,0.25365 1.1176,0.62018 1.45803,1.10913 0.3429,0.48648 0.52494,1.03788 0.54716,1.65524 l -1.41252,0.10054 c -0.0787,-0.66569 -0.33761,-1.16734 -0.77753,-1.50742 -0.43956,-0.33761 -1.08726,-0.5073 -1.94556,-0.5073 -0.8943,0 -1.54764,0.15311 -1.95827,0.4632 -0.40782,0.30727 -0.61172,0.6791 -0.61172,1.11478 0,0.37888 0.14323,0.68897 0.43392,0.93133 0.28539,0.24412 1.02799,0.49354 2.23096,0.75248 1.20333,0.25364 2.02601,0.47554 2.47368,0.66992 0.64911,0.27976 1.12995,0.63641 1.44145,1.06927 0.30727,0.43392 0.4632,0.93275 0.4632,1.49649 0,0.5595 -0.16828,1.08726 -0.51012,1.58185 -0.34043,0.49354 -0.83079,0.87947 -1.46755,1.155 -0.63818,0.2741 -1.35608,0.41204 -2.1523,0.41204 -1.01424,0 -1.85914,-0.13794 -2.54282,-0.41628 -0.68616,-0.27693 -1.22062,-0.69462 -1.60938,-1.24989 -0.38876,-0.5581 -0.59407,-1.1878 -0.61454,-1.89195"
         style="fill:#000000;fill-opacity:1;fill-rule:nonzero;stroke:none;stroke-width:0.352778"
         id="path11531"
         inkscape:connector-curvature="0" />
      <path
         d="m 186.48666,251.97374 1.34938,0.16827 c -0.14605,0.87348 -0.52388,1.55822 -1.12995,2.05317 -0.60925,0.49459 -1.35749,0.74401 -2.24084,0.74401 -1.10526,0 -1.99673,-0.34044 -2.66912,-1.02377 -0.67275,-0.68086 -1.01036,-1.6577 -1.01036,-2.93123 0,-0.81985 0.14217,-1.54058 0.43569,-2.15653 0.28786,-0.61736 0.72883,-1.07915 1.3215,-1.38924 0.59126,-0.30586 1.23472,-0.46284 1.9304,-0.46284 0.87947,0 1.59879,0.21096 2.15547,0.6283 0.56092,0.41768 0.9204,1.01282 1.0788,1.78329 l -1.33386,0.19438 c -0.12664,-0.514 -0.35277,-0.89853 -0.67521,-1.155 -0.32385,-0.25894 -0.71367,-0.3884 -1.17123,-0.3884 -0.69038,0 -1.2513,0.23424 -1.68416,0.69709 -0.43109,0.4699 -0.6477,1.20297 -0.6477,2.21615 0,1.02093 0.20814,1.76388 0.62583,2.22814 0.41628,0.46708 0.96026,0.69709 1.63019,0.69709 0.5401,0 0.98813,-0.15558 1.34761,-0.46849 0.36371,-0.30868 0.59267,-0.78669 0.68756,-1.43439"
         style="fill:#000000;fill-opacity:1;fill-rule:nonzero;stroke:none;stroke-width:0.352778"
         id="path11533"
         inkscape:connector-curvature="0" />
      <path
         d="m 188.87779,247.15056 h 1.37231 v 7.61365 h -1.37231 z m 0,-2.9009 h 1.37231 v 1.48414 h -1.37231 z"
         style="fill:#000000;fill-opacity:1;fill-rule:nonzero;stroke:none;stroke-width:0.352778"
         id="path11535"
         inkscape:connector-curvature="0" />
      <path
         d="m 193.23495,250.22501 h 4.52014 c -0.0593,-0.63958 -0.23001,-1.12183 -0.51682,-1.43862 -0.43956,-0.50165 -1.0033,-0.74824 -1.69898,-0.74824 -0.63112,0 -1.1617,0.19826 -1.59173,0.59372 -0.42863,0.39829 -0.66569,0.93028 -0.71261,1.59314 m 4.50497,2.08774 1.41781,0.16546 c -0.22295,0.77999 -0.63641,1.38359 -1.24001,1.81328 -0.60643,0.43003 -1.38077,0.6477 -2.31916,0.6477 -1.18533,0 -2.12372,-0.34432 -2.81552,-1.02941 -0.69462,-0.68474 -1.04316,-1.64959 -1.04316,-2.88678 0,-1.28305 0.35278,-2.27789 1.05551,-2.98485 0.70026,-0.70979 1.6069,-1.06257 2.72591,-1.06257 1.08726,0 1.97062,0.34713 2.65395,1.04034 0.68756,0.69321 1.0294,1.6704 1.0294,2.927 0,0.0773 -0.003,0.19156 -0.004,0.34466 h -6.03885 c 0.0483,0.83785 0.29916,1.47567 0.75248,1.92229 0.45191,0.4452 1.01847,0.66675 1.69086,0.66675 0.50447,0 0.93169,-0.12524 1.28729,-0.37465 0.35948,-0.24801 0.64064,-0.64206 0.84737,-1.18922"
         style="fill:#000000;fill-opacity:1;fill-rule:nonzero;stroke:none;stroke-width:0.352778"
         id="path11537"
         inkscape:connector-curvature="0" />
      <path
         d="m 200.73853,254.76562 v -7.61506 h 1.23755 v 1.07914 c 0.58984,-0.83537 1.45097,-1.25271 2.57421,-1.25271 0.48613,0 0.93698,0.0826 1.34479,0.24941 0.41064,0.16264 0.7165,0.37889 0.91934,0.64488 0.20391,0.26882 0.34855,0.58702 0.42827,0.95638 0.0483,0.23848 0.0744,0.65723 0.0744,1.25413 v 4.68383 h -1.37089 v -4.63303 c 0,-0.52635 -0.0554,-0.91899 -0.16016,-1.17969 -0.10584,-0.26176 -0.29457,-0.4699 -0.56621,-0.62406 -0.27411,-0.15452 -0.59126,-0.23143 -0.95779,-0.23143 -0.58561,0 -1.08726,0.17216 -1.51307,0.5207 -0.42439,0.35137 -0.63923,1.01283 -0.63923,1.98861 v 4.1589 z"
         style="fill:#000000;fill-opacity:1;fill-rule:nonzero;stroke:none;stroke-width:0.352778"
         id="path11539"
         inkscape:connector-curvature="0" />
      <path
         d="m 214.56424,251.97374 1.34938,0.16827 c -0.1464,0.87348 -0.52388,1.55822 -1.1303,2.05317 -0.60889,0.49459 -1.35431,0.74401 -2.23767,0.74401 -1.10807,0 -1.99954,-0.34044 -2.67229,-1.02377 -0.67239,-0.68086 -1.01,-1.6577 -1.01,-2.93123 0,-0.81985 0.14181,-1.54058 0.43568,-2.15653 0.28786,-0.61736 0.72884,-1.07915 1.3215,-1.38924 0.5909,-0.30586 1.23473,-0.46284 1.93323,-0.46284 0.87912,0 1.59596,0.21096 2.15511,0.6283 0.55951,0.41768 0.91793,1.01282 1.07633,1.78329 l -1.33385,0.19438 c -0.12665,-0.514 -0.35278,-0.89853 -0.67522,-1.155 -0.32103,-0.25894 -0.71402,-0.3884 -1.17122,-0.3884 -0.69039,0 -1.2513,0.23424 -1.68416,0.69709 -0.4311,0.4699 -0.6477,1.20297 -0.6477,2.21615 0,1.02093 0.20813,1.76388 0.62582,2.22814 0.41593,0.46708 0.96026,0.69709 1.63301,0.69709 0.53728,0 0.98531,-0.15558 1.3462,-0.46849 0.3623,-0.30868 0.59126,-0.78669 0.68615,-1.43439"
         style="fill:#000000;fill-opacity:1;fill-rule:nonzero;stroke:none;stroke-width:0.352778"
         id="path11541"
         inkscape:connector-curvature="0" />
      <path
         d="m 217.98196,250.22501 h 4.52261 c -0.0607,-0.63958 -0.23284,-1.12183 -0.51964,-1.43862 -0.43956,-0.50165 -1.00295,-0.74824 -1.69757,-0.74824 -0.63253,0 -1.16029,0.19826 -1.59173,0.59372 -0.42722,0.39829 -0.66675,0.93028 -0.71367,1.59314 m 4.50744,2.08774 1.41817,0.16546 c -0.22755,0.77999 -0.63959,1.38359 -1.24319,1.81328 -0.60361,0.43003 -1.37795,0.6477 -2.31634,0.6477 -1.18534,0 -2.12514,-0.34432 -2.8194,-1.02941 -0.6918,-0.68474 -1.0407,-1.64959 -1.0407,-2.88678 0,-1.28305 0.35278,-2.27789 1.05445,-2.98485 0.70133,-0.70979 1.60938,-1.06257 2.72698,-1.06257 1.08585,0 1.9692,0.34713 2.6543,1.04034 0.68615,0.69321 1.02799,1.6704 1.02799,2.927 0,0.0773 -0.003,0.19156 -0.004,0.34466 h -6.0385 c 0.048,0.83785 0.30163,1.47567 0.75354,1.92229 0.45367,0.4452 1.01705,0.66675 1.69086,0.66675 0.50447,0 0.9331,-0.12524 1.28729,-0.37465 0.35947,-0.24801 0.63923,-0.64206 0.84878,-1.18922"
         style="fill:#000000;fill-opacity:1;fill-rule:nonzero;stroke:none;stroke-width:0.352778"
         id="path11543"
         inkscape:connector-curvature="0" />
      <path
         d="m 224.93838,252.49196 1.35996,-0.20284 c 0.073,0.51435 0.28681,0.90417 0.63535,1.17828 0.34996,0.27305 0.83362,0.40816 1.4605,0.40816 0.63006,0 1.09855,-0.11995 1.40159,-0.36266 0.30445,-0.23953 0.46037,-0.52352 0.46037,-0.85019 0,-0.2921 -0.13793,-0.51964 -0.40675,-0.68897 -0.18874,-0.1143 -0.6544,-0.25894 -1.40406,-0.43533 -1.00612,-0.23848 -1.70321,-0.44803 -2.08915,-0.62019 -0.38981,-0.17638 -0.68474,-0.41627 -0.88476,-0.72496 -0.2025,-0.30867 -0.30163,-0.64911 -0.30163,-1.02093 0,-0.34043 0.0811,-0.65335 0.24518,-0.94404 0.16687,-0.28963 0.39124,-0.53058 0.67804,-0.72213 0.21237,-0.14887 0.50306,-0.27411 0.87101,-0.3736 0.36936,-0.10477 0.76341,-0.15698 1.18498,-0.15698 0.63536,0 1.19486,0.0854 1.67428,0.25894 0.48084,0.17109 0.83644,0.40675 1.06257,0.69744 0.23001,0.29633 0.38594,0.68898 0.47554,1.18216 l -1.34372,0.17251 c -0.0593,-0.39406 -0.23707,-0.69886 -0.53058,-0.91793 -0.2921,-0.2219 -0.70697,-0.33055 -1.23755,-0.33055 -0.63112,0 -1.07879,0.0977 -1.34902,0.2921 -0.27129,0.19826 -0.4064,0.42862 -0.4064,0.68897 0,0.16933 0.0579,0.31821 0.16792,0.45332 0.1143,0.13794 0.28681,0.25224 0.52917,0.34466 0.13511,0.0455 0.54151,0.1584 1.21144,0.32915 0.97014,0.24553 1.64677,0.44379 2.02988,0.59831 0.38171,0.15557 0.68615,0.3817 0.90382,0.67768 0.21766,0.29634 0.32808,0.66711 0.32808,1.10667 0,0.43003 -0.13229,0.83502 -0.3997,1.21532 -0.26987,0.38064 -0.65193,0.67274 -1.15605,0.88088 -0.50306,0.2092 -1.07068,0.31398 -1.70603,0.31398 -1.0541,0 -1.85491,-0.20955 -2.40594,-0.61878 -0.54999,-0.41063 -0.90559,-1.01811 -1.05834,-1.82845"
         style="fill:#000000;fill-opacity:1;fill-rule:nonzero;stroke:none;stroke-width:0.352778"
         id="path11545"
         inkscape:connector-curvature="0" />
    </g>
    <text
       style="fill:black;fill-opacity:1;line-height:1.25;stroke:none;font-family:sans-serif;font-style:normal;font-weight:normal;font-size:10.5833334px;white-space:pre;shape-inside:url(#rect75);"
       id="text73"
       xml:space="preserve" />
    <text
       style="font-style:normal;font-variant:normal;font-weight:normal;font-stretch:normal;font-size:14.1111px;line-height:1.25;font-family:sans-serif;-inkscape-font-specification:'sans-serif, Normal';font-variant-ligatures:normal;font-variant-caps:normal;font-variant-numeric:normal;font-variant-east-asian:normal;letter-spacing:0px;white-space:pre;shape-inside:url(#rect81);fill:#000000;fill-opacity:1;stroke:none;"
       id="text79"
       xml:space="preserve"><tspan
         style="visibility:hidden"
         x="0.80273438"
         y="362.82376"><tspan
           dx="0 10.219511 4.6632719 10.285657 10.715605 10.087219 10.087219 7.2429543 4.6632767 10.715599 10.55024 5.9531174 6.6807098 10.715607 10.087219 5.9531097 10.715607 10.021072 6.6807251 6.9452972 10.186432 8.8304596 10.087219 4.663269 4.663269 10.715607 4.663269 10.186432 7.2429657 5.9531097 10.748672 10.087234 8.8304443 4.663269 8.8304443 4.663269 10.087219 8.8304749 5.9530945 5.953125 4.663269 10.087219 4.663269"
           style="font-style:normal;font-variant:normal;font-weight:normal;font-stretch:normal;font-size:16.9333px;font-family:sans-serif;-inkscape-font-specification:'sans-serif, Normal';font-variant-ligatures:normal;font-variant-caps:normal;font-variant-numeric:normal;font-variant-east-asian:normal">Pioneering the Extracellular Vesicles field</tspan></tspan></text>
    <text
       style="fill:black;fill-opacity:1;line-height:1.25;stroke:none;font-family:sans-serif;font-style:normal;font-weight:normal;font-size:10.5833334px;white-space:pre;shape-inside:url(#rect87);"
       id="text85"
       xml:space="preserve" />
    <text
       style="fill:#000000;fill-opacity:1;line-height:1.25;stroke:none;font-family:sans-serif;font-style:normal;font-weight:normal;font-size:16.9333px;white-space:pre;shape-inside:url(#rect93);-inkscape-font-specification:'sans-serif, Normal';font-stretch:normal;font-variant:normal;font-variant-ligatures:normal;font-variant-caps:normal;font-variant-numeric:normal;font-variant-east-asian:normal;"
       id="text91"
       xml:space="preserve" />
    <text
       style="fill:#000000;fill-opacity:1;line-height:1.25;stroke:none;font-family:sans-serif;font-style:normal;font-weight:normal;font-size:16.9333px;white-space:pre;shape-inside:url(#rect101);-inkscape-font-specification:'sans-serif, Normal';font-stretch:normal;font-variant:normal;font-variant-ligatures:normal;font-variant-caps:normal;font-variant-numeric:normal;font-variant-east-asian:normal;"
       id="text99"
       xml:space="preserve" />
    <text
       style="fill:black;fill-opacity:1;line-height:1.25;stroke:none;font-family:sans-serif;font-style:normal;font-weight:normal;font-size:10.5833334px;white-space:pre;shape-inside:url(#rect107);"
       id="text105"
       xml:space="preserve" />
    <text
       id="text113"
       y="341.69904"
       x="-11.0965"
       style="font-style:normal;font-weight:normal;font-size:10.5833px;line-height:1.25;font-family:sans-serif;letter-spacing:0.645583px;fill:#000000;fill-opacity:1;stroke:none;stroke-width:0.264583"
       xml:space="preserve"><tspan
         dx="12.64"
         style="font-style:normal;font-variant:normal;font-weight:normal;font-stretch:normal;font-size:17.6389px;font-family:sans-serif;-inkscape-font-specification:'sans-serif, Normal';font-variant-ligatures:normal;font-variant-caps:normal;font-variant-numeric:normal;font-variant-east-asian:normal;stroke-width:0.264583"
         y="341.69904"
         x="-11.0965"
         id="tspan111"
         sodipodi:role="line">Pioneering the Extracellular Vesicles field</tspan></text>
    <text
       style="fill:black;fill-opacity:1;line-height:1.25;stroke:none;font-family:sans-serif;font-style:normal;font-weight:normal;font-size:10.5833334px;white-space:pre;shape-inside:url(#rect117);"
       id="text115"
       xml:space="preserve" />
  </g>
</svg>
