<?xml version="1.0" encoding="UTF-8"?><svg xmlns="http://www.w3.org/2000/svg" xmlns:xlink="http://www.w3.org/1999/xlink" viewBox="0 0 274.31 41.94" width="160px" height="auto"><defs><style>.e{fill:url(#d);}.f{fill:#909295;}</style><linearGradient id="d" x1="201.74" y1="45.99" x2="258.79" y2="-11.06" gradientTransform="matrix(1, 0, 0, 1, 0, 0)" gradientUnits="userSpaceOnUse"><stop offset=".28" stop-color="#ff7e00"/><stop offset="1" stop-color="#ffef00"/></linearGradient></defs><g id="a"/><g id="b"><g id="c"><g><path class="f" d="M97.09,0C87.95,0,81.35,5.11,81.35,17.23v7.47c0,12.18,6.66,17.23,15.74,17.23s15.68-5.06,15.74-17.23v-7.47C112.83,5.06,106.16,0,97.09,0Zm7.99,24.76c0,7.24-2.59,10.51-7.99,10.51s-7.99-3.22-7.99-10.51v-7.47c0-7.24,2.59-10.51,7.99-10.51s7.99,3.22,7.99,10.51v7.47Zm59,17.18c-2.95,0-5.33-.23-7.42-.5-1.08-.14-2.58-.41-3.37-.55v-6.21c.78,.09,1.82,.21,2.27,.26,.14,.01,.23,.02,.24,.02,2.59,.23,6.69,.43,8.4,.43,4.88,0,6.38-1.78,6.38-4.94,0-2.13-1.03-3.27-4.71-5.4l-7.3-4.37c-5.11-3.04-6.49-6.2-6.49-10.11,0-6.09,3.5-10.46,13.79-10.46,2.56,0,5.92,.22,8.28,.53,.01,0,.46,.05,1.09,.13,.64,.07,1.45,.18,2.18,.3V7.27c-.34-.03-.7-.06-1.02-.09-.4-.03-.78-.07-1.09-.1-.14-.01-.27-.02-.38-.03-.01,0-.02,0-.04,0-.03,0-.07,0-.1,0-.08-.01-.16-.02-.24-.02-3.02-.25-6.07-.41-9.03-.41-4.08,0-5.8,1.44-5.8,3.91,0,1.84,.92,2.93,4.54,4.88l6.61,3.68c6.09,3.39,7.64,6.89,7.64,11.26,.11,5.63-3.39,11.6-14.42,11.6ZM0,.52H7.64V41.47H0v-1.08h0V1.55H0V.52Zm38.35,0h7.64V41.48h-11.68L22.12,13.24v28.24h-7.64V.52h10.47l12.38,28.69,.64,1.41c.1,.24,.24,.4,.38,.45V.52Zm21.75,0h16.59v7.64h-16.66v8.79h15.95v1.28c.02,.07,.02,.14,.02,.21v3.96c0,.08,0,.16-.02,.23v1.95h-15.95v16.89h-7.64V.52h7.71Zm88.4,39.93l-8.48-16.17c4.43-1.8,7.27-5.41,7.27-11.18v-.52c0-6.27-3.44-9.59-7.93-11.31-.01,0-.02,0-.03-.01-1.51-.52-5.38-.75-9.33-.62l-11.15,.3V41.48h7.64V25.45c1.26,.06,3.45,.23,4.88,.23h.75l8.29,15.8h8.63l-.48-.91-.07-.13Zm-8.9-27.4c0,4.83-2.59,6.38-8.27,6.38-.9,0-3.89-.11-4.83-.17V6.83c1.02-.11,3.7-.22,4.83-.22s2.19,.08,3.1,.24c3.45,.61,5.18,2.41,5.18,5.68v.52Zm35.7-5.96c-.25-.02-.51-.05-.76-.06,.05,0,.34,.03,.76,.06Z"/><path class="e" d="M253.52,41.57c-4.13,0-7.49-3.36-7.49-7.49v-13.29c0-3.2-2.6-5.8-5.8-5.8s-5.8,2.6-5.8,5.8v13.23c0,4.13-3.36,7.49-7.49,7.49s-7.49-3.36-7.49-7.49c0-3.2-2.6-5.8-5.8-5.8s-5.66,2.6-5.8,5.8c-.18,4.19-3.36,7.49-7.49,7.49s-7.49-3.36-7.49-7.49V7.49c0-4.13,3.36-7.49,7.49-7.49s7.25,3.37,7.49,7.49c.19,3.2,2.6,5.8,5.8,5.8s5.61-2.5,5.8-5.8c.24-4.18,3.47-7.44,7.61-7.44h39.76c4.13,0,7.49,3.36,7.49,7.49s-3.36,7.49-7.49,7.49c-3.2,0-5.8,2.6-5.8,5.8v13.23c0,4.13-3.36,7.49-7.49,7.49Z"/></g></g></g></svg>