<?xml version="1.0" encoding="utf-8"?>
<!-- Generator: Adobe Illustrator 19.2.1, SVG Export Plug-In . SVG Version: 6.00 Build 0)  -->
<svg version="1.1" id="Layer_1" xmlns="http://www.w3.org/2000/svg" xmlns:xlink="http://www.w3.org/1999/xlink" x="0px" y="0px"
	 viewBox="0 0 911.9 146.9" style="enable-background:new 0 0 911.9 146.9;" xml:space="preserve">
<style type="text/css">
	.st0{fill:#2E3192;}
	.st1{fill:#FFF200;}
	.st2{fill:#2e3192;}
</style>
<title>petrolaser_logo</title>
<g>
	<rect y="-0.1" class="st0" width="147" height="147"/>
	<path class="st1" d="M146.8,139.4c-17.8-13.7-63.4-47.2-65.2-67C79.9,52.6,118.2,2,120.3-0.1c-4.2,0-7.2,0-7.2,0
		S72.8,53.7,54.2,53.7C34.1,53.7,0,24.3,0,24.3v10.5c0,0,37.6,29,37.6,46.4S0,146.9,0,146.9h8.7c0,0,33.5-47.7,57.3-47.7
		s80.8,47.7,80.8,47.7V139.4z"/>
</g>
<g>
	<path class="st2" d="M224.5,38.9h-36V98c0,5.1,0.7,8.3,2,9.7c1.3,1.4,4.4,2.1,9.2,2.3v2.1h-33.4v-2.1c4.8-0.2,7.9-0.9,9.2-2.3
		c1.3-1.4,2-4.6,2-9.7V48.8c0-5.1-0.7-8.3-2-9.7c-1.3-1.4-4.4-2.1-9.2-2.3v-2.1h80.3v2.1c-4.8,0.2-7.9,0.9-9.2,2.3
		c-1.3,1.4-2,4.6-2,9.7V98c0,5.1,0.7,8.3,2,9.7c1.3,1.4,4.4,2.1,9.2,2.3v2.1h-33.3v-2.1c4.8-0.2,7.8-0.9,9.1-2.3
		c1.3-1.4,2-4.6,2-9.7V38.9z"/>
	<path class="st2" d="M273.2,38.9v30.6h17c4.4,0,7.4-0.7,8.9-2c2-1.8,3.1-4.8,3.3-9.3h2.1v27h-2.1c-0.5-3.8-1.1-6.2-1.6-7.3
		c-0.7-1.3-1.8-2.4-3.4-3.1c-1.6-0.8-4-1.1-7.2-1.1h-17v25.6c0,3.4,0.2,5.5,0.5,6.3c0.3,0.7,0.8,1.3,1.6,1.8
		c0.8,0.4,2.2,0.7,4.3,0.7h13.1c4.4,0,7.6-0.3,9.5-0.9c2-0.6,3.9-1.8,5.7-3.6c2.4-2.4,4.8-5.9,7.3-10.7h2.3l-6.7,19.4h-59.7v-2.1
		h2.7c1.8,0,3.6-0.4,5.2-1.3c1.2-0.6,2-1.5,2.5-2.7c0.4-1.2,0.7-3.7,0.7-7.5V48.1c0-4.9-0.5-7.9-1.5-9.1c-1.4-1.5-3.7-2.3-6.9-2.3
		h-2.7v-2.1h59.7l0.9,17h-2.2c-0.8-4.1-1.7-6.9-2.7-8.4c-1-1.5-2.4-2.7-4.3-3.5c-1.5-0.6-4.2-0.9-8.1-0.9H273.2z"/>
	<path class="st2" d="M388,34.6l0.9,18.2h-2.2c-0.4-3.2-1-5.5-1.7-6.9c-1.2-2.2-2.8-3.8-4.7-4.9c-2-1-4.5-1.6-7.7-1.6h-10.9v59.2
		c0,4.8,0.5,7.7,1.5,8.9c1.4,1.6,3.7,2.4,6.7,2.4h2.7v2.1h-32.9v-2.1h2.7c3.3,0,5.6-1,7-3c0.8-1.2,1.3-4,1.3-8.3V39.5h-9.3
		c-3.6,0-6.2,0.3-7.7,0.8c-2,0.7-3.7,2.1-5.1,4.2c-1.4,2.1-2.2,4.8-2.5,8.3h-2.2l0.9-18.2H388z"/>
	<path class="st2" d="M415.8,75.9v22.6c0,4.9,0.5,7.9,1.6,9.1c1.4,1.7,3.6,2.5,6.6,2.5h3v2.1h-33.2v-2.1h2.9c3.3,0,5.6-1.1,7-3.2
		c0.8-1.2,1.1-4,1.1-8.4V48.4c0-4.9-0.5-7.9-1.5-9.1c-1.5-1.7-3.7-2.5-6.6-2.5h-2.9v-2.1h28.4c6.9,0,12.4,0.7,16.4,2.1
		c4,1.4,7.4,3.8,10.1,7.2c2.7,3.4,4.1,7.4,4.1,12.1c0,6.3-2.1,11.5-6.3,15.4c-4.2,4-10.1,5.9-17.7,5.9c-1.9,0-3.9-0.1-6.1-0.4
		C420.6,76.8,418.3,76.4,415.8,75.9z M415.8,72.6c2,0.4,3.8,0.7,5.4,0.9c1.6,0.2,2.9,0.3,4,0.3c4,0,7.4-1.5,10.3-4.6
		c2.9-3.1,4.3-7,4.3-11.9c0-3.4-0.7-6.5-2.1-9.3c-1.4-2.9-3.3-5-5.8-6.5s-5.4-2.1-8.6-2.1c-1.9,0-4.4,0.4-7.5,1.1V72.6z"/>
	<path class="st2" d="M501.1,32.9c10.1,0,18.8,3.8,26.2,11.5c7.4,7.6,11.1,17.2,11.1,28.6c0,11.8-3.7,21.6-11.1,29.3
		s-16.4,11.7-27,11.7c-10.7,0-19.6-3.8-26.9-11.4c-7.3-7.6-10.9-17.4-10.9-29.4c0-12.3,4.2-22.4,12.6-30.1
		C482.3,36.3,491,32.9,501.1,32.9z M500.1,37.1c-6.9,0-12.5,2.6-16.7,7.7c-5.2,6.4-7.8,15.8-7.8,28.1c0,12.7,2.7,22.4,8.1,29.2
		c4.2,5.2,9.6,7.8,16.5,7.8c7.3,0,13.3-2.8,18-8.5c4.7-5.7,7.1-14.6,7.1-26.9c0-13.3-2.6-23.2-7.8-29.7
		C513.2,39.6,507.5,37.1,500.1,37.1z"/>
</g>
<g>
	<path class="st2" d="M563.5,34.5h54.4v77.6h-15.7V47.7h-23.3v33.1c0,9.5-0.3,16.1-1,19.9c-0.6,3.8-2.2,6.7-4.6,8.8
		c-2.5,2.1-6.3,3.1-11.5,3.1c-1.8,0-5.2-0.2-10-0.5V100l3.5,0.1c3.3,0,5.5-0.4,6.6-1.3c1.1-0.9,1.7-3.1,1.7-6.5l-0.1-13.3V34.5z"/>
	<path class="st2" d="M703.9,112.1h-17l-6.8-17.6h-31l-6.4,17.6h-16.6l30.2-77.6h16.6L703.9,112.1z M675.1,81.4l-10.7-28.8
		l-10.5,28.8H675.1z"/>
	<path class="st2" d="M723.3,55.7l-15.2-3.5c3.3-12.6,12.6-18.9,28-18.9c9.1,0,16,2,20.6,6c4.6,4,7,8.7,7,14.1c0,3.7-1.1,7-3.2,10
		c-2.1,3-5.3,5.6-9.5,7.9c5.2,1.8,9,4.3,11.6,7.5c2.6,3.2,3.9,7.2,3.9,11.9c0,6.8-2.5,12.3-7.5,16.5c-5,4.2-12.5,6.3-22.4,6.3
		c-8.1,0-14.5-1.3-19.2-4c-4.7-2.7-8.2-7.8-10.6-15.2l14.3-4.7c1.5,4.7,3.4,7.7,5.9,9.1c2.5,1.4,5.5,2.1,9.1,2.1
		c4.9,0,8.5-1.1,10.8-3.2c2.3-2.1,3.4-4.6,3.4-7.3c0-3.2-1.3-5.7-3.8-7.7c-2.6-1.9-6.4-2.9-11.6-2.9h-3.5V67.8h1.8
		c4.8,0,8.5-1.1,11-3.2c2.5-2.2,3.8-5,3.8-8.6c0-2.8-1-5.2-3.1-7.1c-2.1-1.9-5-2.9-8.9-2.9C729.3,46,725.1,49.2,723.3,55.7z"/>
	<path class="st2" d="M780.2,112.1V34.5h57.5v13.1h-41.9v17.2h39v13.1h-39v21.1h43.3v13.1H780.2z"/>
	<path class="st2" d="M852.5,112.1V34.5h25.1c9.5,0,15.7,0.4,18.6,1.2c4.4,1.2,8.2,3.7,11.2,7.6c3,3.9,4.5,8.9,4.5,15.1
		c0,4.8-0.9,8.8-2.6,12c-1.7,3.2-3.9,5.8-6.6,7.6c-2.7,1.9-5.4,3.1-8.1,3.7c-3.7,0.7-9.2,1.1-16.2,1.1h-10.2v29.3H852.5z
		 M868.1,47.7v22h8.6c6.2,0,10.3-0.4,12.4-1.2c2.1-0.8,3.7-2.1,4.9-3.8c1.2-1.7,1.8-3.7,1.8-6c0-2.8-0.8-5.2-2.5-7
		c-1.7-1.8-3.8-3-6.3-3.4c-1.9-0.4-5.6-0.5-11.3-0.5H868.1z"/>
</g>
</svg>
